<svg width="172" height="57" viewBox="0 0 172 57" fill="none" xmlns="http://www.w3.org/2000/svg">
<path d="M7 43.2809C7 39.2785 7.72763 35.9371 9.53917 32.4328C10.4985 30.577 9.41118 25.8613 10.53 24.0877C11.5492 22.4722 9.88027 20.0816 10.9695 18.5195C13.5171 14.8658 18.4376 14.158 20.6521 10.3026C21.9896 7.97395 19.035 15.3956 18.2345 17.9445C15.9732 25.1451 14.3121 32.4689 12.4273 39.7613C11.7786 42.2708 11.1861 42.8297 10.882 45.4032C10.7768 46.2937 10.8322 47.2083 10.8322 48.1032C10.8322 49.4768 10.8069 49.1748 10.8446 47.8621C10.9524 44.1107 11.9607 42.5634 13.0753 38.9899C14.1749 35.4647 15.2828 32.0049 17.3372 28.877C20.2686 24.4141 24.2861 21.1029 27.88 17.1972C29.149 15.8181 30.1466 14.3088 30.8833 12.6048C31.2913 11.6612 31.3857 10.4178 32.0049 9.5794C32.4355 8.99622 31.7987 11 31.6435 11.7008C30.8731 15.1781 29.6715 18.5573 28.8271 22.0186C27.4265 27.7598 26.1024 33.5318 24.9639 39.3274C24.723 40.5536 24.291 41.92 24.291 43.1724C24.291 43.7417 23.7529 45.3196 24.1165 44.872C24.3732 44.556 24.5592 43.9652 24.7022 43.6305C25.7833 41.1006 26.7701 38.534 27.8426 36.0006C30.5942 29.5011 33.5159 22.9029 37.0145 16.7392C38.2006 14.6496 39.5691 11.5483 41.4509 9.96555C42.1387 9.38708 42.571 8.73274 43.1333 8.04905C43.2523 7.90436 44.0977 6.84378 43.9807 7.49459C42.9551 13.1984 40.9588 19.8706 39.3698 25.4418C38.0808 29.9614 37.3894 34.683 36.192 39.243C35.7153 41.0586 35.058 43.2209 35.058 45.1131C35.058 46.2328 34.3798 45.5292 34.2106 46.6568C34.0089 48.0007 33.555 50.5295 34.7714 47.6452C37.8405 40.3674 41.4692 35.2952 47.5697 29.9257C50.1401 27.6633 52.4763 25.6546 53.8505 22.4525C54.8507 20.122 55.0022 17.4845 55.7946 15.0758C56.336 13.4297 56.1435 12.6169 56.1435 10.9169C56.1435 9.42971 56.3678 8.84867 56.3678 10.7964C56.3678 12.4204 56.4534 13.0703 56.318 14.6901C56.1321 16.9131 55.2964 19.0882 54.7976 21.2592C53.6047 26.4514 52.011 31.5477 50.76 36.7238C50.0818 39.5297 52.7967 42.4393 52.0776 45.2215C51.8564 46.0773 48.5727 47.1896 48.5168 48.0541C48.5151 48.0814 48.5232 46.3079 48.5542 45.9327C48.7899 43.0837 56.0054 40.1251 57.4578 37.664C59.7762 33.7355 57.0279 30.3801 59.8447 26.7918C62.3577 23.5904 64.2501 20.0402 64.9914 16.0642C65.2513 14.6701 68.5445 14.2415 68.5647 12.8213C68.576 12.0202 68.5025 11.2554 68.7391 10.483C68.8746 10.0408 68.789 10.0504 68.789 10.5794C68.789 11.7825 66.0025 11.9671 66.0133 13.1713C66.0559 17.9539 66.161 22.7754 65.9011 27.5511C65.599 33.1027 65.116 38.6003 65.116 44.1608C65.116 44.8072 65.0362 47.2153 64.5552 47.6805C63.8457 48.3667 64.7066 45.7303 64.9914 44.7997C65.6858 42.5307 67.0772 40.4207 68.4807 38.5077C69.6553 36.9069 71.0013 35.4338 72.1694 33.831C73.6397 31.8136 74.3751 29.6749 75.098 27.3342C76.3473 23.2889 77.446 19.1648 79.6964 15.5097C80.486 14.2273 81.3385 13.0386 81.8897 11.6526C82.6152 9.82812 82.4154 12.3014 82.2386 13.0629C81.6998 15.3845 80.3877 17.516 79.5219 19.7284C78.0376 23.5216 76.7107 27.4086 75.7086 31.348C74.4705 36.2153 73.8643 39.4655 73.8643 44.4872C73.8643 45.3681 73.8992 44.2105 73.964 43.9568C74.5895 41.5063 76.0605 41.0567 77.1542 38.785C80.2886 32.2743 84.0507 26.0759 87.8963 19.9454C89.1546 17.9395 90.2257 15.8913 91.3607 13.8222C91.9739 12.7045 92.4762 11.5232 93.1428 10.4352C93.3222 10.1423 93.5225 9.235 93.716 9.79636C94.2073 11.2219 93.8352 13.2729 93.8282 14.7383C93.8098 18.5494 93.3399 22.1853 92.5944 25.9239C91.3449 32.1906 89.5714 38.2949 87.8215 44.4381C87.6425 45.0665 87.5425 45.8496 87.2109 46.4269C86.9016 46.9654 87.3199 45.1802 87.3605 45.0648C88.26 42.509 89.5232 40.0487 90.5631 37.5435C92.6986 32.3989 94.9697 27.3681 97.4172 22.3561C99.9557 17.1575 102.036 14.2527 105.443 9.49371C105.486 9.43254 105.859 8.73856 105.929 9.108C106.178 10.4367 105.711 9.35448 105.468 10.6522C109.068 18.098 99.8846 28.9223 99.8846 36.5413C99.8846 38.6116 106.168 36.4678 106.555 38.4957C106.846 40.0252 105.805 39.7755 105.405 41.2809C105.202 42.0442 101.006 44.8793 101.006 45.6675C101.006 46.6846 100.913 47.2536 99.8846 46.9693" stroke="#36ABFF" stroke-width="13" stroke-linecap="round"/>
<path d="M103.009 47.7346C103.009 46.4825 102.969 45.2237 103.06 43.9738C103.303 40.6515 105.031 37.6838 106.734 34.7779C108.742 31.3526 110.887 27.9817 113.021 24.619C114.602 22.1266 116.36 19.7678 117.859 17.2348C118.893 15.4872 115.5 9.49854 120.355 12.0406C120.451 11.9273 124.881 10.3915 124.924 10.6622C125.245 12.6488 120.98 15.9192 120.911 17.9113C120.566 28.0065 118.02 38.0242 117.16 48.1016C117.134 48.4088 116.804 49.0344 117.031 47.4087C113.021 43.0745 125.621 47.8697 127.5 43.6347C130.064 37.8566 127.393 24.2355 130.924 18.8515C132.106 17.0478 133.828 14.4452 136.201 13.6803C136.465 13.5953 142.631 10.2465 142.883 10.5198C143.503 11.1917 137.491 17.3453 137.366 18.0374C136.55 22.5579 143.503 14.3291 142.695 18.8515C142.155 21.8737 132.847 42.0508 132.398 45.0745C132.382 45.1829 133.324 42.1994 133.692 41.6347C136.614 37.145 139.548 53.6244 142.695 49.2541C146.223 44.3557 149.994 18.6614 154.078 14.116C154.47 13.6801 156.696 10.7214 157.623 11.0201C158.915 11.4366 158.915 14.0908 158.994 14.9874C159.351 19.0579 158.768 23.1132 157.713 27.0727C156.762 30.6423 155.583 34.1747 154.363 37.6789C153.713 39.5443 152.964 41.4126 152.655 43.3546C152.597 43.7235 155.842 45.7891 156.5 45.0745C160.506 40.7262 161.333 35.0145 165 30.4437" stroke="#36ABFF" stroke-width="13" stroke-linecap="round"/>
<rect x="4" y="5" width="164" height="48" rx="8" stroke="#171717" stroke-width="3"/>
<path d="M5.26367 10.9214C6.0423 9.93749 6.88999 9.12907 7.63953 8.06356C8.32061 7.09536 9.77765 7.2674 10.6517 6.89926C11.988 6.33641 13.3778 6.41815 14.7671 6.41815C16.8912 6.41815 18.8616 5.03255 20.9538 5.03255C22.0925 5.03255 23.268 4.90086 24.3924 5.16726C25.3973 5.40536 26.3606 6.04389 27.3706 6.23533C29.1105 6.56511 30.9302 6.41815 32.7045 6.41815C34.787 6.41815 36.8695 6.41815 38.9521 6.41815C39.8027 6.41815 40.6533 6.41815 41.5039 6.41815" stroke="#171717" stroke-width="2" stroke-linecap="round"/>
<path d="M43.1553 6.40039C49.8835 6.40039 56.6117 6.40039 63.3399 6.40039C65.4275 6.40039 67.2984 6.62969 69.3506 7.09319C71.1945 7.50965 73.1441 7.26639 75.0093 7.26639C75.8898 7.26639 76.7525 7.43959 77.6424 7.43959C79.5873 7.43959 81.5322 7.43959 83.4771 7.43959C85.3535 7.43959 87.3948 7.65736 89.2103 6.91999" stroke="#171717" stroke-width="2" stroke-linecap="round"/>
<path d="M88.1133 6.91999C92.9509 6.91999 97.7796 6.74679 102.612 6.74679C104.525 6.74679 106.211 7.22446 108.081 7.68977C108.847 7.8802 109.633 7.9592 110.41 7.9592C111.734 7.9592 113.057 8.05492 114.363 7.6994C115.869 7.28932 117.404 6.91999 118.938 6.91999C121.048 6.91999 123.177 7.36716 125.274 7.25677C126.513 7.19156 127.676 6.40039 128.902 6.40039C129.808 6.40039 130.7 6.57359 131.603 6.57359C134.042 6.57359 141.359 6.74679 138.92 6.74679" stroke="#171717" stroke-width="2" stroke-linecap="round"/>
<path d="M132.677 6.45715C134.17 6.45715 145.664 6.45715 147.158 6.45715C148.068 6.45715 148.856 6.33957 149.743 6.02415C151.39 5.43899 152.904 5.07154 154.61 5.07154C155.83 5.07154 157.067 4.96597 158.272 5.28323C159.029 5.48253 159.736 5.97124 160.465 6.24546C161.292 6.55641 162.365 7.14995 163.213 7.14995C164.256 7.14995 165.195 8.05588 166.002 8.88196C167.472 10.3862 168.09 11.9679 167.654 14.5976C167.277 16.8649 167.288 19.0519 167.288 21.362C167.288 23.9996 166.679 26.5423 166.679 29.1464" stroke="#171717" stroke-width="2" stroke-linecap="round"/>
<path d="M167.679 30.1465C167.679 31.2306 167.679 32.3147 167.679 33.3988C167.679 34.5004 167.538 35.8254 167.706 36.9013C168.093 39.376 168.166 41.7365 168.166 44.272C168.166 45.2728 168.239 46.6109 167.984 47.5531C167.691 48.6347 167.16 49.1094 166.488 49.8914C164.786 51.8705 162.964 52.4894 160.795 52.4894C159.086 52.4894 157.328 52.277 155.61 52.1333C154.328 52.0261 153.057 51.6234 151.772 51.6234C150.505 51.6234 149.236 51.6524 147.968 51.6234C146.053 51.5794 144.158 51.1408 142.269 51.8928C140.932 52.4251 139.59 52.6626 138.201 52.6626C137.991 52.6626 136.788 52.6626 137.098 52.6626" stroke="#171717" stroke-width="2" stroke-linecap="round"/>
<path d="M134 52C132.165 52 130.329 52 128.494 52C125.729 52 122.687 51.5993 119.967 50.9267C118.942 50.6731 117.926 50.2586 116.879 50.1292C115.918 50.0103 114.89 50.1217 113.926 50.1217C109.037 50.1217 104.014 49.7144 99.156 50.39C97.264 50.6532 95.3818 51.1272 93.4894 51.4335C92.2582 51.6328 90.9425 51.381 89.725 51.6273C88.3753 51.9004 86.7825 51.8658 85.4113 51.8658C85.0309 51.8658 83.1764 51.6073 83 52" stroke="#171717" stroke-width="2" stroke-linecap="round"/>
<path d="M90 52C88.8694 52 87.7389 52 86.6083 52C85.5891 52 84.682 51.6335 83.6742 51.4691C80.9991 51.0329 78.2991 51 75.5854 51C72.6223 51 69.7054 51.3333 66.7427 51.3333C65.5605 51.3333 64.3776 51.5316 63.203 51.5556C62.202 51.576 58.9987 51 60 51" stroke="#171717" stroke-width="2" stroke-linecap="round"/>
<path d="M61 51C60.126 51 59.2521 51 58.3781 51C56.9169 51 55.4915 50.75 54.0398 50.75C51.2081 50.75 48.378 50.8049 45.5592 50.5C43.8026 50.31 42.0258 50 40.2614 50C38.3224 50 36.4407 50.312 34.5108 50.375C31.7127 50.4663 28.9618 51.4841 26.1585 51.6181C23.2983 51.7548 14.7132 52 17.5766 52" stroke="#171717" stroke-width="2" stroke-linecap="round"/>
<path d="M21.9553 53.0089C19.0925 53.0089 16.1959 52.8402 13.3995 52.0081C12.3748 51.7033 11.21 51.4501 10.164 51.4501C9.38443 51.4501 8.84329 50.94 8.18755 50.4493C7.09043 49.6285 5.69108 48.3321 5.62894 46.3887C5.53255 43.3745 4.53239 40.6755 4.53239 37.6325C4.53239 36.2429 4.28871 34.7791 4.28871 33.3025C4.28871 32.1509 4.16687 31.0064 4.16687 29.8385C4.16687 27.5801 4.13439 25.2045 4.04503 23.0452C3.94371 20.5965 4.04503 18.1262 4.04503 15.636C4.04503 14.657 4.10294 13.7236 4.38347 12.8263C4.46872 12.5536 4.19046 12.0518 4.5 12" stroke="#171717" stroke-width="2" stroke-linecap="round"/>
</svg>
