<svg width="428" height="55" viewBox="0 0 428 55" fill="none" xmlns="http://www.w3.org/2000/svg">
<path d="M7.22755 41.2803C7.22755 37.2779 6.84368 33.9365 9.39685 30.4322C10.7489 28.5764 10.6259 23.8607 12.2027 22.0871C13.6391 20.4716 12.6964 17.081 14.2315 15.5188C17.8221 11.8652 23.3477 12.1574 26.4688 8.30197C28.3539 5.97331 24.1896 13.395 23.0614 15.9439C19.8743 23.1444 17.5332 30.4683 14.8767 37.7607C13.9625 40.2702 13.1274 40.829 12.6988 43.4026C12.5505 44.2931 12.6286 45.2077 12.6286 46.1026C12.6286 47.4762 12.593 47.1742 12.6461 45.8615C12.798 42.1101 14.2191 40.5627 15.79 36.9893C17.3398 33.464 18.9012 30.0043 21.7968 26.8764C25.9282 22.4135 31.5905 19.1023 36.6557 15.1966C38.4442 13.8175 39.8502 12.3082 40.8886 10.6042C41.4636 9.66052 41.5967 9.41715 42.4693 8.57876C43.0763 7.99558 42.1788 8.99941 41.9599 9.70018C40.8742 13.1775 39.1806 16.5567 37.9906 20.018C36.0166 25.7592 34.1504 31.5312 32.5458 37.3268C32.2063 38.553 31.5974 39.9194 31.5974 41.1718C31.5974 41.7411 30.839 43.319 31.3515 42.8714C31.7132 42.5554 31.9754 41.9645 32.177 41.6298C33.7007 39.0999 35.0914 36.5334 36.603 34C40.4812 27.5004 44.5989 20.9023 49.5299 14.7385C51.2016 12.6489 53.1303 11.5477 55.7826 9.96491C56.7519 9.38644 57.3612 8.7321 58.1537 8.04841C58.3214 7.90373 59.5129 6.84314 59.348 7.49395C57.9026 13.1978 55.0889 17.8699 52.8494 23.4411C51.0327 27.9608 50.0582 32.6824 48.3707 37.2424C47.6988 39.058 46.7724 41.2203 46.7724 43.1124C46.7724 44.2321 45.8166 44.5286 45.5781 45.6561C45.2938 47.0001 44.6541 49.5288 46.3684 46.6445C50.694 39.3668 55.8084 33.2945 64.4064 27.925C68.0291 25.6626 71.3217 23.6539 73.2585 20.4519C74.6681 18.1213 74.8816 15.4839 75.9984 13.0752C76.7616 11.4291 76.4902 9.61622 76.4902 7.91626C76.4902 6.42907 76.8063 5.84803 76.8063 7.79573C76.8063 9.41974 76.927 11.0697 76.7361 12.6894C76.4741 14.9125 75.2963 17.0875 74.5933 19.2586C72.912 24.4508 70.6658 29.5471 68.9027 34.7232C67.9469 37.529 67.5451 40.4386 66.5316 43.2209C66.2198 44.0767 65.8199 45.1889 65.7412 46.0535C65.7387 46.0808 65.7501 44.3073 65.7939 43.9321C66.126 41.083 74.8862 42.1245 76.9332 39.6634C80.2007 35.7349 77.7367 28.3794 81.7066 24.7911C85.2484 21.5898 87.9156 18.0396 88.9604 14.0635C89.3267 12.6694 89.74 11.2409 89.7683 9.82071C89.7843 9.01952 89.6807 8.25478 90.0142 7.48234C90.2051 7.04019 90.0845 7.04979 90.0845 7.57876C90.0845 8.78186 90.3855 9.96649 90.4006 11.1707C90.4607 15.9533 90.6088 20.7747 90.2426 25.5505C89.8168 31.102 89.136 36.5997 89.136 42.1602C89.136 42.8065 89.0235 45.2146 88.3457 45.6798C87.3457 46.3661 88.559 43.7296 88.9604 42.799C89.939 40.5301 91.9001 38.42 93.8782 36.5071C95.5337 34.9063 97.4308 33.4332 99.0771 31.8304C101.149 29.813 102.186 27.6743 103.205 25.3335C104.965 21.2882 103.695 17.1642 106.867 13.5091C107.98 12.2266 109.181 11.038 109.958 9.65196C110.981 7.82749 110.699 10.3008 110.45 11.0622C109.69 13.3838 107.841 15.5153 106.621 17.7278C104.529 21.521 105.477 25.4079 104.065 29.3474C102.32 34.2147 101.466 39.4649 101.466 44.4865C101.466 45.3674 101.515 44.2099 101.606 43.9562C102.488 41.5056 104.561 39.056 106.103 36.7843C110.52 30.2737 115.822 24.0753 121.242 17.9448C123.016 15.9389 124.525 13.8906 126.125 11.8216C126.989 10.7039 127.697 9.52252 128.637 8.43456C128.89 8.14163 129.172 7.23436 129.445 7.79573C130.137 9.22131 129.613 11.2722 129.603 12.7377C129.577 16.5488 128.915 20.1847 127.864 23.9233C126.103 30.19 123.603 36.2943 121.137 42.4374C120.885 43.0659 120.744 43.8489 120.276 44.4263C119.841 44.9648 120.43 43.1796 120.487 43.0642C121.755 40.5084 123.535 38.0481 125.001 35.5428C128.011 30.3982 131.212 25.3674 134.661 20.3555C138.239 15.1569 141.171 13.252 145.972 8.49307C146.034 8.4319 146.559 7.73793 146.657 8.10736C147.009 9.43603 146.351 11.3538 146.007 12.6515C144.035 20.0974 138.139 22.9217 138.139 30.5406C138.139 32.611 139.948 34.4671 140.492 36.4951C140.903 38.0245 140.846 39.7748 140.282 41.2803C139.996 42.0435 139.72 42.8787 139.72 43.6669C139.72 44.684 139.589 45.253 138.139 44.9687" stroke="#36ABFF" stroke-width="13" stroke-linecap="round"/>
<path d="M142.541 45.7952C142.541 44.5411 142.487 43.2801 142.612 42.0282C142.943 38.7006 145.298 35.728 147.62 32.8174C150.357 29.3866 153.281 26.0102 156.19 22.642C158.346 20.1456 160.742 17.7829 162.785 15.2458C164.194 13.4954 164.315 11.6697 166.188 10.0432C166.319 9.92968 166.905 9.39302 166.964 9.66422C167.401 11.654 167.039 13.9281 166.946 15.9234C166.476 26.0351 163.005 34.069 161.833 44.1627C161.797 44.4704 161.347 47.1003 161.656 45.472C162.526 40.89 166.218 38.2882 168.78 34.0463C172.276 28.2588 175.783 22.2579 180.595 16.8651C182.207 15.0586 191.601 8.45169 194.836 7.68554C195.196 7.60046 196.785 7.2511 197.129 7.52475C197.974 8.19777 196.594 11.3565 196.423 12.0497C195.311 16.5776 185.381 29.5166 184.28 34.0463C183.545 37.0735 183.217 40.1021 182.605 43.1307C182.583 43.2393 183.867 40.251 184.369 39.6853C188.352 35.1883 192.351 51.6945 196.642 47.3171C201.45 42.4108 206.591 16.6747 212.159 12.122C212.693 11.6854 215.727 8.72181 216.991 9.02108C218.752 9.43821 218.753 12.0967 218.86 12.9948C219.347 17.0719 218.552 21.1337 217.114 25.0997C215.818 28.6751 214.21 32.2132 212.547 35.7231C211.662 37.5916 210.639 39.4629 210.219 41.408C210.14 41.7775 209.78 43.0196 210.678 42.3038C216.139 37.9485 220.686 33.0544 225.684 28.4762" stroke="#36ABFF" stroke-width="13" stroke-linecap="round"/>
<path d="M211.602 45.7953C211.602 44.5412 211.547 43.2802 211.672 42.0283C212.003 38.7007 214.358 35.7281 216.68 32.8175C219.417 29.3867 222.341 26.0103 225.25 22.6421C227.406 20.1457 229.802 17.783 231.845 15.2459C233.254 13.4955 233.375 11.6698 235.248 10.0433C235.379 9.92978 235.965 9.39312 236.024 9.66433C236.461 11.6541 236.099 13.9282 236.007 15.9235C235.536 26.0352 232.065 36.0691 230.893 46.1628C230.857 46.4705 230.407 49.1004 230.716 47.4721C231.586 42.8901 235.278 38.2883 237.84 34.0464C241.336 28.2589 244.843 22.258 249.655 16.8653C251.267 15.0587 256.433 10.4518 259.668 9.68564C260.027 9.60057 261.617 9.2512 261.961 9.52485C262.806 10.1979 261.426 13.3566 261.255 14.0498C260.143 18.5777 254.441 31.5167 253.34 36.0464C252.605 39.0736 252.277 42.1022 251.665 45.1308C251.643 45.2395 252.927 42.2511 253.429 41.6854C257.412 37.1884 261.411 49.6946 265.702 45.3172C270.51 40.4109 275.651 16.6748 281.219 12.1221C281.753 11.6855 284.787 8.72191 286.051 9.02118C287.812 9.43832 287.813 12.0968 287.92 12.9949C288.407 17.072 287.612 21.1338 286.174 25.0998C284.878 28.6752 283.27 32.2134 281.607 35.7232C280.722 37.5917 279.699 37.463 279.279 39.4081C279.2 39.7776 278.84 41.0197 279.738 40.3039C285.199 35.9486 289.746 33.0545 294.744 28.4763" stroke="#36ABFF" stroke-width="13" stroke-linecap="round"/>
<path d="M279.253 45.7953C279.253 44.5412 279.199 43.2802 279.323 42.0283C279.655 38.7007 282.009 35.7281 284.331 32.8175C287.069 29.3867 289.992 26.0103 292.901 22.6421C295.057 20.1457 297.454 17.783 299.496 15.2459C300.906 13.4955 301.027 11.6698 302.9 10.0433C303.03 9.92978 303.616 9.39312 303.676 9.66433C304.112 11.6541 303.751 13.9282 303.658 15.9235C303.187 26.0352 299.716 36.0691 298.544 46.1628C298.508 46.4705 298.059 49.1004 298.368 47.4721C299.237 42.8901 302.93 38.2883 305.492 34.0464C308.987 28.2589 312.494 22.258 317.306 16.8653C318.918 15.0587 321.266 12.4518 324.501 11.6856C324.86 11.6006 326.449 11.2512 326.793 11.5249C327.639 12.1979 326.258 15.3566 326.088 16.0498C324.976 20.5777 322.093 29.5167 320.992 34.0464C320.256 37.0736 319.928 40.1022 319.317 43.1308C319.295 43.2395 320.579 40.2511 321.08 39.6854C325.063 35.1884 329.063 51.6946 333.353 47.3172C338.162 42.4109 343.303 16.6748 348.871 12.1221C349.404 11.6855 352.439 8.72191 353.702 9.02118C355.463 9.43832 355.464 12.0968 355.571 12.9949C356.058 17.072 355.263 21.1338 353.826 25.0998C352.529 28.6752 350.922 32.2134 349.259 35.7232C348.373 37.5917 347.351 39.463 346.931 41.4081C346.851 41.7776 346.492 43.0197 347.389 42.3039C352.851 37.9486 357.397 33.0545 362.396 28.4763" stroke="#36ABFF" stroke-width="13" stroke-linecap="round"/>
<path d="M279.253 45.7953C279.253 44.5412 279.199 43.2802 279.323 42.0283C279.655 38.7007 282.009 35.7281 284.331 32.8175C287.069 29.3867 289.992 26.0103 292.901 22.6421C295.057 20.1457 297.454 17.783 299.496 15.2459C300.906 13.4955 301.027 11.6698 302.9 10.0433C303.03 9.92978 303.616 9.39312 303.676 9.66433C304.112 11.6541 303.751 13.9282 303.658 15.9235C303.187 26.0352 299.716 36.0691 298.544 46.1628C298.508 46.4705 298.059 49.1004 298.368 47.4721C299.237 42.8901 302.93 48.2883 305.492 44.0464C308.987 38.2589 312.494 22.258 317.306 16.8653C318.918 15.0587 321.266 12.4518 324.501 11.6856C324.86 11.6006 336.315 9.2512 336.659 9.52485C337.504 10.1979 336.124 13.3566 335.954 14.0498C334.841 18.5777 322.093 29.5167 320.992 34.0464C320.256 37.0736 319.928 40.1022 319.317 43.1308C319.295 43.2395 320.579 40.2511 321.08 39.6854C325.063 35.1884 329.063 51.6946 333.353 47.3172C338.162 42.4109 343.303 16.6748 348.871 12.1221C349.404 11.6855 352.439 8.72191 353.702 9.02118C355.463 9.43832 355.464 12.0968 355.571 12.9949C356.058 17.072 355.263 21.1338 353.826 25.0998C352.529 28.6752 350.922 32.2134 349.259 35.7232C348.373 37.5917 347.351 39.463 346.931 41.4081C346.851 41.7776 346.492 43.0197 347.389 42.3039C352.851 37.9486 357.397 33.0545 362.396 28.4763" stroke="#36ABFF" stroke-width="13" stroke-linecap="round"/>
<path d="M353.951 45.7952C353.951 44.5411 353.897 43.2801 354.021 42.0282C354.353 38.7006 356.707 35.728 359.029 32.8174C361.766 29.3866 361.871 26.0102 364.78 22.642C366.936 20.1456 370.742 17.7829 372.785 15.2458C374.194 13.4954 374.315 11.6697 376.188 10.0432C376.319 9.92968 376.904 9.39302 376.964 9.66422C377.4 11.654 377.039 13.9281 376.946 15.9234C376.476 26.0351 371.595 34.069 370.423 44.1627C370.387 44.4704 369.938 47.1003 370.247 45.472C371.116 40.89 377.628 45.2882 380.19 41.0463C383.685 35.2588 387.192 20.2579 392.004 14.8651C393.616 13.0586 395.964 10.4517 399.199 9.68554C399.558 9.60046 401.147 9.2511 401.491 9.52475C402.336 10.1978 400.956 13.3565 400.786 14.0497C399.673 18.5776 393.972 29.5166 392.871 34.0463C392.135 37.0735 391.807 38.1021 391.196 41.1307C391.174 41.2393 392.458 40.251 392.959 39.6853C396.942 35.1883 400.941 49.6945 405.232 45.3171C410.041 40.4108 415.182 16.6747 420.75 12.122" stroke="#36ABFF" stroke-width="13" stroke-linecap="round"/>
<rect x="3" y="3" width="420" height="48" rx="8" stroke="#171717" stroke-width="3"/>
<path d="M4.78125 8.92137C5.87864 7.93749 7.07338 7.12907 8.12977 6.06356C9.08968 5.09536 11.1432 5.2674 12.375 4.89926C14.2584 4.33641 16.2173 4.41815 18.1753 4.41815C21.169 4.41815 23.9461 3.03255 26.8948 3.03255C28.4997 3.03255 30.1564 2.90086 31.7411 3.16726C33.1575 3.40536 34.5152 4.04389 35.9387 4.23533C38.3909 4.56511 40.9556 4.41815 43.4562 4.41815C46.3913 4.41815 49.3264 4.41815 52.2615 4.41815C53.4604 4.41815 54.6593 4.41815 55.8581 4.41815" stroke="#171717" stroke-width="2" stroke-linecap="round"/>
<path d="M58.1851 4.40039C67.6678 4.40039 77.1505 4.40039 86.6332 4.40039C89.5754 4.40039 92.2122 4.62969 95.1046 5.09319C97.7035 5.50965 100.451 5.26639 103.08 5.26639C104.321 5.26639 105.537 5.43959 106.791 5.43959C109.532 5.43959 112.273 5.43959 115.015 5.43959C117.659 5.43959 120.536 5.65736 123.095 4.91999" stroke="#171717" stroke-width="2" stroke-linecap="round"/>
<path d="M121.389 4.66169C149.168 4.66169 176.895 4.44113 204.645 4.44113C215.629 4.44113 225.31 5.04942 236.05 5.64197C240.446 5.88448 244.961 5.98507 249.421 5.98507C257.023 5.98507 264.62 6.10696 272.12 5.65422C280.77 5.13201 289.585 4.66169 298.395 4.66169C310.509 4.66169 322.736 5.23114 334.775 5.09056C341.887 5.00752 348.57 4 355.609 4C360.808 4 365.933 4.22056 371.117 4.22056C385.124 4.22056 427.141 4.44113 413.133 4.44113" stroke="#171717" stroke-width="2" stroke-linecap="round"/>
<path d="M387.31 4.45672C389.415 4.45672 391.52 4.45672 393.625 4.45672C394.908 4.45672 396.018 4.33914 397.269 4.02372C399.59 3.43856 401.724 4.07111 404.128 4.07111C405.847 4.07111 407.591 3.96554 409.29 4.2828C410.357 4.4821 411.353 4.97081 412.381 5.24503C413.545 5.55598 415.058 6.14952 416.254 6.14952C417.723 6.14952 419.047 7.05545 420.184 7.88153C422.256 9.38581 423.128 10.9675 422.512 13.5971C421.981 15.8644 421.997 18.0514 421.997 20.3616C421.997 22.9992 421.138 25.5419 421.138 28.146" stroke="#171717" stroke-width="2" stroke-linecap="round"/>
<path d="M421.138 28.1465C421.138 29.2306 421.138 30.3147 421.138 31.3988C421.138 32.5004 420.939 33.8254 421.176 34.9013C421.722 37.376 421.825 39.7365 421.825 42.272C421.825 43.2728 421.927 44.6109 421.568 45.5531C421.155 46.6347 420.407 47.1094 419.459 47.8914C417.061 49.8705 414.492 50.4894 411.436 50.4894C409.027 50.4894 406.549 50.277 404.129 50.1333C402.321 50.0261 400.53 49.6234 398.719 49.6234C396.933 49.6234 395.144 49.6524 393.358 49.6234C390.659 49.5794 387.988 49.1408 385.325 49.8928C383.441 50.4251 381.55 50.6626 379.592 50.6626C379.297 50.6626 377.6 50.6626 378.037 50.6626" stroke="#171717" stroke-width="2" stroke-linecap="round"/>
<path d="M329.98 50C322.22 50 314.46 50 306.7 50C295.01 50 282.148 49.5993 270.647 48.9267C266.31 48.6731 262.015 48.2586 257.591 48.1292C253.525 48.0103 249.177 48.1217 245.101 48.1217C224.433 48.1217 203.192 47.7144 182.653 48.39C174.653 48.6532 166.695 49.1272 158.693 49.4335C153.487 49.6328 147.925 49.381 142.777 49.6273C137.07 49.9004 130.335 49.8658 124.538 49.8658C122.929 49.8658 115.088 49.6073 114.342 50" stroke="#171717" stroke-width="2" stroke-linecap="round"/>
<path d="M124.208 50C122.615 50 121.021 50 119.428 50C117.991 50 116.713 49.6335 115.292 49.4691C111.522 49.0329 107.717 49 103.892 49C99.7159 49 95.6048 49.3333 91.4292 49.3333C89.7629 49.3333 88.0958 49.5316 86.4403 49.5556C85.0295 49.576 80.5148 49 81.926 49" stroke="#171717" stroke-width="2" stroke-linecap="round"/>
<path d="M83.3357 49C82.1039 49 80.8722 49 79.6404 49C77.581 49 75.5721 48.75 73.526 48.75C69.535 48.75 65.5462 48.8049 61.5735 48.5C59.0977 48.31 56.5936 48 54.1067 48C51.374 48 48.722 48.312 46.0019 48.375C42.0583 48.4663 38.1812 49.4841 34.2303 49.6181C30.199 49.7548 18.0993 50 22.1349 50" stroke="#171717" stroke-width="2" stroke-linecap="round"/>
<path d="M28.3062 51.0089C24.2713 51.0089 20.1888 50.8402 16.2477 50.0081C14.8034 49.7033 13.1618 49.4501 11.6876 49.4501C10.5888 49.4501 9.82611 48.94 8.90192 48.4493C7.35564 47.6285 5.3834 46.3321 5.29582 44.3887C5.15998 41.3745 3.75035 38.6755 3.75035 35.6325C3.75035 34.2429 3.40691 32.7791 3.40691 31.3025C3.40691 30.1509 3.23519 29.0064 3.23519 27.8385C3.23519 25.5801 3.1894 23.2045 3.06347 21.0452C2.92066 18.5965 3.06347 16.1262 3.06347 13.636C3.06347 12.657 3.14508 11.7236 3.54047 10.8263C3.66062 10.5536 3.26844 10.0518 3.7047 10" stroke="#171717" stroke-width="2" stroke-linecap="round"/>
</svg>
