<svg width="434" height="56" viewBox="0 0 434 56" fill="none" xmlns="http://www.w3.org/2000/svg">
<path d="M426.979 13.7822C426.979 17.7846 427.369 21.126 424.776 24.6303C423.403 26.4861 423.528 31.2018 421.926 32.9754C420.467 34.5909 421.425 37.9815 419.866 39.5437C416.219 43.1973 410.607 42.9051 407.437 46.7605C405.523 49.0892 409.752 41.6675 410.898 39.1186C414.135 31.9181 416.513 24.5942 419.211 17.3018C420.139 14.7923 420.987 14.2335 421.422 11.6599C421.573 10.7694 421.494 9.8548 421.494 8.95993C421.494 7.58634 421.53 7.88832 421.476 9.201C421.322 12.9524 419.878 14.4998 418.283 18.0732C416.709 21.5985 415.123 25.0582 412.182 28.1861C407.986 32.649 402.236 35.9602 397.091 39.8659C395.275 41.245 393.847 42.7543 392.793 44.4583C392.209 45.402 392.073 45.6454 391.187 46.4837C390.571 47.0669 391.482 46.0631 391.704 45.3623C392.807 41.885 394.527 38.5058 395.736 35.0445C397.741 29.3033 399.636 23.5313 401.266 17.7357C401.61 16.5095 402.229 15.1431 402.229 13.8907C402.229 13.3214 402.999 11.7435 402.479 12.1911C402.111 12.5071 401.845 13.098 401.64 13.4327C400.093 15.9626 398.68 18.5291 397.145 21.0625C393.206 27.5621 389.024 34.1602 384.016 40.324C382.318 42.4136 380.36 43.5148 377.666 45.0976C376.681 45.6761 376.063 46.3304 375.258 47.0141C375.087 47.1588 373.877 48.2194 374.045 47.5685C375.513 41.8647 378.37 37.1926 380.645 31.6214C382.49 27.1017 383.48 22.3801 385.194 17.8201C385.876 16.0045 386.817 13.8422 386.817 11.9501C386.817 10.8304 387.788 10.5339 388.03 9.40635C388.319 8.06242 388.968 5.53367 387.227 8.41797C382.834 15.6957 377.64 21.768 368.908 27.1375C365.228 29.3999 361.884 31.4086 359.917 34.6106C358.486 36.9412 358.269 39.5786 357.134 41.9873C356.359 43.6334 356.635 45.4463 356.635 47.1462C356.635 48.6334 356.314 49.2145 356.314 47.2668C356.314 45.6428 356.191 43.9928 356.385 42.3731C356.651 40.15 357.847 37.975 358.561 35.8039C360.269 30.6117 362.55 25.5154 364.341 20.3393C365.312 17.5335 365.72 14.6239 366.749 11.8416C367.066 10.9858 367.472 9.87358 367.552 9.00903C367.554 8.98172 367.543 10.7552 367.498 11.1304C367.161 13.9795 358.264 12.938 356.185 15.3991C352.867 19.3276 355.369 26.6831 351.337 30.2714C347.74 33.4727 345.031 37.0229 343.97 40.999C343.598 42.3931 343.178 43.8216 343.149 45.2418C343.133 46.043 343.238 46.8077 342.9 47.5802C342.706 48.0223 342.828 48.0127 342.828 47.4837C342.828 46.2806 342.523 45.096 342.507 43.8918C342.446 39.1092 342.296 34.2878 342.668 29.512C343.1 23.9605 343.792 18.4628 343.792 12.9023C343.792 12.256 343.906 9.84789 344.594 9.38269C345.61 8.69644 344.378 11.3329 343.97 12.2635C342.976 14.5324 340.984 16.6425 338.975 18.5554C337.294 20.1562 335.367 21.6293 333.695 23.2321C331.591 25.2495 330.538 27.3882 329.503 29.729C327.715 33.7743 329.005 37.8983 325.784 41.5534C324.654 42.8359 323.433 44.0245 322.645 45.4105C321.606 47.235 321.892 44.7617 322.145 44.0003C322.916 41.6787 324.794 39.5472 326.034 37.3347C328.159 33.5415 327.195 29.6546 328.629 25.7151C330.402 20.8478 331.269 15.5976 331.269 10.576C331.269 9.69508 331.219 10.8526 331.127 11.1063C330.231 13.5569 328.126 16.0065 326.56 18.2782C322.074 24.7888 316.689 30.9872 311.184 37.1177C309.383 39.1236 307.85 41.1719 306.225 43.2409C305.347 44.3586 304.628 45.54 303.674 46.6279C303.417 46.9209 303.13 47.8281 302.854 47.2668C302.15 45.8412 302.683 43.7903 302.693 42.3248C302.719 38.5137 303.392 34.8778 304.459 31.1392C306.248 24.8725 308.786 18.7682 311.291 12.6251C311.547 11.9966 311.69 11.2136 312.165 10.6362C312.608 10.0977 312.009 11.8829 311.951 11.9983C310.663 14.5541 308.855 17.0144 307.367 19.5197C304.31 24.6643 301.059 29.6951 297.556 34.707C293.922 39.9056 290.944 41.8105 286.068 46.5694C286.005 46.6306 285.472 47.3246 285.372 46.9551C285.015 45.6265 285.683 43.7087 286.032 42.411C288.036 34.9651 294.024 32.1408 294.024 24.5219C294.024 22.4515 292.186 20.5954 291.633 18.5674C291.217 17.038 291.275 15.2877 291.848 13.7822C292.138 13.019 292.418 12.1838 292.418 11.3956C292.418 10.3785 292.551 9.80954 294.024 10.0938" stroke="#DBDBDB" stroke-width="13" stroke-linecap="round"/>
<path d="M289.552 9.26731C289.552 10.5214 289.607 11.7824 289.48 13.0343C289.143 16.3619 286.752 19.3345 284.394 22.2451C281.614 25.6759 278.644 29.0523 275.69 32.4205C273.5 34.9169 271.067 37.2796 268.992 39.8167C267.561 41.5671 267.438 43.3928 265.536 45.0193C265.403 45.1328 264.808 45.6695 264.748 45.3983C264.304 43.4085 264.671 41.1344 264.766 39.1391C265.243 29.0274 268.769 20.9935 269.959 10.8998C269.995 10.5921 270.452 7.96217 270.138 9.59054C269.255 14.1725 265.505 16.7743 262.903 21.0162C259.353 26.8037 255.791 32.8046 250.904 38.1974C249.267 40.0039 239.726 46.6108 236.44 47.377C236.075 47.462 234.461 47.8114 234.112 47.5377C233.253 46.8647 234.655 43.706 234.828 43.0128C235.958 38.4849 246.043 25.5459 247.161 21.0162C247.908 17.989 248.241 14.9604 248.862 11.9318C248.885 11.8232 247.58 14.8115 247.071 15.3772C243.026 19.8742 238.964 3.36798 234.607 7.74541C229.723 12.6517 224.502 38.3878 218.847 42.9405C218.305 43.3771 215.223 46.3407 213.94 46.0414C212.151 45.6243 212.15 42.9658 212.041 42.0677C211.547 37.9906 212.354 33.9288 213.814 29.9628C215.131 26.3874 216.764 22.8493 218.453 19.3394C219.352 17.4709 220.39 15.5996 220.817 13.6545C220.898 13.285 221.263 12.0429 220.351 12.7587C214.805 17.114 210.187 22.0081 205.111 26.5863" stroke="#DBDBDB" stroke-width="13" stroke-linecap="round"/>
<path d="M219.413 9.26721C219.413 10.5213 219.468 11.7823 219.342 13.0342C219.005 16.3618 216.614 19.3344 214.256 22.245C211.476 25.6758 208.506 29.0522 205.552 32.4204C203.362 34.9168 200.929 37.2795 198.854 39.8166C197.423 41.567 197.3 43.3927 195.397 45.0192C195.265 45.1327 194.67 45.6694 194.609 45.3982C194.166 43.4084 194.533 41.1343 194.627 39.139C195.105 29.0273 198.631 18.9934 199.821 8.8997C199.857 8.59196 200.314 5.96207 200 7.59044C199.117 12.1724 195.367 16.7742 192.765 21.0161C189.215 26.8036 185.653 32.8045 180.766 38.1972C179.128 40.0038 173.882 44.6107 170.596 45.3769C170.231 45.4619 168.617 45.8113 168.268 45.5376C167.409 44.8646 168.811 41.7059 168.984 41.0127C170.114 36.4848 175.905 23.5458 177.023 19.0161C177.77 15.9889 178.103 12.9603 178.724 9.93167C178.746 9.82305 177.442 12.8114 176.933 13.3771C172.888 17.8741 168.826 5.36788 164.469 9.74531C159.585 14.6516 154.363 38.3877 148.709 42.9404C148.166 43.377 145.085 46.3406 143.802 46.0413C142.013 45.6242 142.012 42.9657 141.903 42.0676C141.409 37.9905 142.216 33.9287 143.676 29.9627C144.993 26.3873 146.625 22.8491 148.315 19.3393C149.214 17.4708 150.252 17.5995 150.679 15.6544C150.76 15.2849 151.125 14.0428 150.213 14.7586C144.667 19.1139 140.049 22.008 134.972 26.5862" stroke="#DBDBDB" stroke-width="13" stroke-linecap="round"/>
<path d="M150.705 9.26721C150.705 10.5213 150.76 11.7823 150.634 13.0342C150.297 16.3618 147.906 19.3344 145.548 22.245C142.768 25.6758 139.798 29.0522 136.844 32.4204C134.654 34.9168 132.221 37.2795 130.146 39.8166C128.714 41.567 128.592 43.3927 126.689 45.0192C126.557 45.1327 125.962 45.6694 125.901 45.3982C125.458 43.4084 125.825 41.1343 125.919 39.139C126.397 29.0273 129.923 18.9934 131.113 8.8997C131.149 8.59196 131.606 5.96207 131.292 7.59044C130.409 12.1724 126.659 16.7742 124.057 21.0161C120.507 26.8036 116.945 32.8045 112.058 38.1972C110.42 40.0038 108.036 42.6107 104.751 43.3769C104.386 43.4619 102.772 43.8113 102.423 43.5376C101.564 42.8646 102.966 39.7059 103.139 39.0127C104.269 34.4848 107.197 25.5458 108.315 21.0161C109.062 17.9889 109.395 14.9603 110.016 11.9317C110.038 11.823 108.734 14.8114 108.225 15.3771C104.18 19.8741 100.118 3.36788 95.7606 7.74531C90.8767 12.6516 85.6554 38.3877 80.0007 42.9404C79.4584 43.377 76.377 46.3406 75.0936 46.0413C73.3048 45.6242 73.3042 42.9657 73.1952 42.0676C72.7007 37.9905 73.508 33.9287 74.9682 29.9627C76.2846 26.3873 77.9174 22.8491 79.6067 19.3393C80.5059 17.4708 81.5441 15.5995 81.9706 13.6544C82.0517 13.2849 82.4166 12.0428 81.505 12.7586C75.9585 17.1139 71.3411 22.008 66.2644 26.5862" stroke="#DBDBDB" stroke-width="13" stroke-linecap="round"/>
<path d="M150.705 9.26721C150.705 10.5213 150.76 11.7823 150.634 13.0342C150.297 16.3618 147.906 19.3344 145.548 22.245C142.768 25.6758 139.798 29.0522 136.844 32.4204C134.654 34.9168 132.221 37.2795 130.146 39.8166C128.714 41.567 128.592 43.3927 126.689 45.0192C126.557 45.1327 125.962 45.6694 125.901 45.3982C125.458 43.4084 125.825 41.1343 125.919 39.139C126.397 29.0273 129.923 18.9934 131.113 8.8997C131.149 8.59196 131.606 5.96207 131.292 7.59044C130.409 12.1724 126.659 6.77422 124.057 11.0161C120.507 16.8036 116.945 32.8045 112.058 38.1972C110.42 40.0038 108.036 42.6107 104.751 43.3769C104.386 43.4619 92.752 45.8113 92.4029 45.5376C91.5442 44.8646 92.9463 41.7059 93.1193 41.0127C94.2489 36.4848 107.197 25.5458 108.315 21.0161C109.062 17.9889 109.395 14.9603 110.016 11.9317C110.038 11.823 108.734 14.8114 108.225 15.3771C104.18 19.8741 100.118 3.36788 95.7606 7.74531C90.8767 12.6516 85.6554 38.3877 80.0007 42.9404C79.4584 43.377 76.377 46.3406 75.0936 46.0413C73.3048 45.6242 73.3042 42.9657 73.1952 42.0676C72.7007 37.9905 73.508 33.9287 74.9682 29.9627C76.2846 26.3873 77.9174 22.8491 79.6067 19.3393C80.5059 17.4708 81.5441 15.5995 81.9706 13.6544C82.0517 13.2849 82.4166 12.0428 81.505 12.7586C75.9585 17.1139 71.3411 22.008 66.2644 26.5862" stroke="#DBDBDB" stroke-width="13" stroke-linecap="round"/>
<path d="M74.8421 9.26731C74.8421 10.5214 74.8971 11.7824 74.7705 13.0343C74.4339 16.3619 72.0427 19.3345 69.6843 22.2451C66.9044 25.6759 66.7978 29.0523 63.8434 32.4205C61.6537 34.9169 57.7886 37.2796 55.714 39.8167C54.2826 41.5671 54.1598 43.3928 52.2576 45.0193C52.1248 45.1328 51.53 45.6695 51.4696 45.3983C51.0263 43.4085 51.3932 41.1344 51.4875 39.1391C51.9653 29.0274 56.9221 20.9935 58.1125 10.8998C58.1488 10.5921 58.6054 7.96217 58.2916 9.59054C57.4085 14.1725 50.7955 9.77432 48.1935 14.0162C44.6435 19.8037 41.0819 34.8046 36.1945 40.1974C34.5572 42.0039 32.1731 44.6108 28.8876 45.377C28.5228 45.462 26.9086 45.8114 26.5595 45.5377C25.7008 44.8647 27.1028 41.706 27.2758 41.0128C28.4055 36.4849 34.1963 25.5459 35.3143 21.0162C36.0614 17.989 36.3943 16.9604 37.0157 13.9318C37.038 13.8232 35.7337 14.8115 35.2248 15.3772C31.1791 19.8742 27.1175 5.36798 22.7601 9.74541C17.8762 14.6517 12.655 38.3878 7.00018 42.9405" stroke="#DBDBDB" stroke-width="13" stroke-linecap="round"/>
<rect width="420" height="48" rx="8" transform="matrix(1 -2.53028e-08 8.89784e-09 -1 9.00098 52)" stroke="#171717" stroke-width="2" stroke-linecap="round" stroke-linejoin="round" stroke-dasharray="2 6"/>
</svg>
