<svg width="173" height="56" viewBox="0 0 173 56" fill="none" xmlns="http://www.w3.org/2000/svg">
<path d="M7.12996 39.2809C7.12996 35.2785 5.81614 34.9371 7.6867 31.4328C8.67727 29.577 8.58711 24.8613 9.7424 23.0878C10.7948 21.4722 9.07149 17.0816 10.1962 15.5195C12.8268 11.8658 17.9076 13.158 20.1943 9.30261C21.5754 6.97395 18.5244 14.3956 17.6979 16.9445C15.3629 24.1451 13.6477 28.4689 11.7015 35.7613C11.0317 38.2708 10.4198 40.8297 10.1059 43.4032C9.9972 44.2937 10.0544 45.2083 10.0544 46.1032C10.0544 47.4768 10.0283 47.1748 10.0673 45.8621C10.1785 42.1107 11.2197 38.5634 12.3706 34.9899C13.506 31.4646 14.65 31.0049 16.7714 27.877C19.7982 23.4141 23.9467 20.1029 27.6576 16.1972C28.9679 14.8181 29.998 13.3088 30.7588 11.6048C31.18 10.6612 31.2776 9.41778 31.9169 8.5794C32.3616 7.99622 31.704 10 31.5437 10.7008C30.7482 14.1781 29.5074 17.5573 28.6356 21.0186C27.1894 26.7598 25.8221 32.5318 24.6465 38.3274C24.3978 39.5536 23.9517 40.92 23.9517 42.1724C23.9517 42.7417 23.396 44.3196 23.7715 43.872C24.0366 43.556 24.2286 42.9652 24.3763 42.6305C25.4926 40.1006 26.5115 37.534 27.619 35.0006C30.4603 28.5011 33.4771 21.9029 37.0897 15.7392C38.3145 13.6496 39.7275 11.5483 41.6707 9.96555C42.3809 9.38708 42.8273 8.73274 43.4079 8.04905C43.5307 7.90436 44.4037 6.84378 44.2829 7.49459C43.2239 13.1984 41.1625 18.8706 39.5218 24.4418C38.1907 28.9614 37.4768 33.683 36.2405 38.243C35.7482 40.0586 35.0695 42.2209 35.0695 44.1131C35.0695 45.2328 34.3692 46.5292 34.1945 47.6568C33.9862 49.0007 33.5175 49.5295 34.7735 46.6452C37.9426 39.3674 41.6896 34.2952 47.9888 28.9257C50.643 26.6633 53.0553 24.6546 54.4742 21.4525C55.507 19.122 55.6634 16.4845 56.4816 14.0758C57.0407 12.4297 56.8419 10.6169 56.8419 8.9169C56.8419 7.42971 57.0735 6.84867 57.0735 8.79636C57.0735 10.4204 57.1619 12.0703 57.0221 13.6901C56.8301 15.9131 55.9672 18.0882 55.4522 20.2592C54.2204 25.4514 52.5747 30.5477 51.283 35.7238C50.5828 38.5297 50.2884 41.4393 49.5458 44.2215C49.3174 45.0773 49.0245 46.1896 48.9668 47.0541C48.965 47.0814 48.9733 45.3079 49.0054 44.9327C49.2487 42.0837 50.5039 39.1251 52.0036 36.664C54.3975 32.7355 57.7551 29.3801 60.6637 25.7918C63.2585 22.5904 65.2126 19.0402 65.9781 15.0642C66.2465 13.6701 66.5492 12.2415 66.57 10.8213C66.5817 10.0202 66.5058 9.25541 66.7501 8.48297C66.89 8.04082 66.8016 8.05043 66.8016 8.5794C66.8016 9.78249 73.3789 11.9038 73.39 13.108C73.434 17.8906 67.1858 21.7754 66.9174 26.5511C66.6055 32.1027 66.1068 37.6003 66.1068 43.1608C66.1068 43.8072 66.0243 46.2152 65.5277 46.6804C64.7951 47.3667 60.3696 43.2115 60.6637 42.2809C61.3806 40.012 68.1318 39.4207 69.5811 37.5077C70.7939 35.9069 72.1838 34.4338 73.39 32.831C74.9082 30.8136 75.6675 28.6749 76.4139 26.3342C77.7039 22.2889 78.8385 18.1648 81.1621 14.5097C81.9774 13.2273 82.8578 12.0386 83.4269 10.6526C84.176 8.82812 83.9697 11.3014 83.7872 12.0629C83.2308 14.3845 81.876 16.516 80.982 18.7284C79.4493 22.5216 78.0791 26.4086 77.0444 30.348C75.766 35.2153 75.14 40.4655 75.14 45.4872C75.14 46.3681 75.1761 45.2105 75.2429 44.9568C75.8889 42.5063 77.4078 40.0567 78.5371 37.785C81.7736 31.2743 85.6583 25.0759 89.6292 18.9454C90.9285 16.9395 92.0344 14.8913 93.2065 12.8222C93.8396 11.7045 94.3583 10.5232 95.0466 9.4352C95.2319 9.14227 95.4387 8.235 95.6385 8.79636C96.1458 10.2219 95.7616 12.2729 95.7543 13.7383C95.7354 17.5494 95.2501 21.1853 94.4804 24.9239C93.1901 31.1906 91.3588 37.2949 89.552 43.4381C89.3671 44.0665 89.2639 44.8496 88.9215 45.4269C88.6021 45.9654 89.034 44.1802 89.0759 44.0648C90.0047 41.509 91.3091 39.0487 92.3829 36.5435C94.588 31.3989 96.9331 26.3681 99.4602 21.3561C102.081 16.1575 104.23 14.2527 107.747 9.49371C107.792 9.43254 108.177 12.7386 108.249 13.108C108.507 14.4367 108.025 12.3545 107.773 13.6522C106.328 21.098 102.008 23.9223 102.008 31.5413C102.008 33.6116 103.334 35.4678 103.732 37.4957C104.033 39.0252 108.662 40.7755 108.249 42.2809C108.039 43.0442 103.166 43.8793 103.166 44.6675C103.166 45.6846 103.07 46.2536 102.008 45.9693" stroke="#DBDBDB" stroke-width="13" stroke-linecap="round"/>
<path d="M105.235 46.7953C105.235 45.5412 105.195 44.2802 105.286 43.0283C105.529 39.7007 107.254 36.7281 108.955 33.8175C110.961 30.3867 113.103 27.0103 115.234 23.6421C116.814 21.1457 115.604 15.6592 117.101 13.1221C118.133 11.3716 121.187 12.6698 122.559 11.0433C122.655 10.9298 123.084 10.3931 123.128 10.6643C123.447 12.6541 123.183 14.9282 123.115 16.9235C122.77 27.0352 127.253 36.7016 126.394 46.7953C126.368 47.103 119.013 50.1004 119.239 48.4721C119.876 43.8901 117.362 39.2883 119.239 35.0464C121.8 29.2589 129.588 23.258 133.114 17.8653C134.295 16.0587 136.015 11.4518 138.385 10.6856C138.648 10.6006 139.813 10.2512 140.065 10.5249C140.684 11.1979 139.673 14.3566 139.548 15.0498C150.143 13.1221 136.621 30.5167 135.814 35.0464C135.275 38.0736 135.035 41.1022 134.587 44.1308C134.571 44.2395 135.512 41.2511 135.879 40.6854C138.797 36.1884 141.727 52.6946 144.87 48.3172C148.394 43.4109 152.16 17.6748 156.239 13.1221C156.63 12.6855 158.853 9.72191 159.779 10.0212C161.069 10.4383 161.07 13.0968 161.149 13.9949C161.505 18.072 160.923 22.1338 159.87 26.0998C158.92 29.6752 157.742 33.2134 156.523 36.7232C155.875 38.5917 155.126 40.463 154.818 42.4081C154.76 42.7776 154.496 44.0197 155.154 43.3039C159.155 38.9486 162.486 34.0545 166.148 29.4763" stroke="#DBDBDB" stroke-width="13" stroke-linecap="round"/>
<rect x="3" y="4" width="164.18" height="48" rx="8" stroke="#171717" stroke-width="2" stroke-linecap="round" stroke-linejoin="round" stroke-dasharray="2 6"/>
</svg>
