<svg width="152" height="81" viewBox="0 0 152 81" fill="none" xmlns="http://www.w3.org/2000/svg">
<path d="M142.179 36C142.179 38.9894 142.179 42.0192 142.34 45.049C142.38 45.6954 142.742 46.463 142.863 47.1093C143.104 48.402 142.903 49.8564 143.024 51.1491C143.064 51.7146 143.064 52.2802 143.064 52.8862C143.064 53.4517 143.024 51.755 142.984 51.1895C142.823 49.614 142.702 48.0385 142.702 46.463C142.702 45.8974 142.903 44.9683 142.622 44.4431C142.38 43.9987 142.139 42.3828 141.616 42.3828C140.409 42.302 139.162 42.3828 137.955 42.3828C137.874 42.3828 136.707 42.3424 137.069 42.5444C138.397 43.3928 140.489 43.4735 141.978 43.6351C144.352 43.8775 147.409 44.2411 149.823 43.7159C150.105 43.6351 151.714 43.6351 150.628 43.6351C148.817 43.6351 147.047 43.9583 145.237 43.7159C143.949 43.5543 142.702 43.2312 141.455 42.9484C140.972 42.8272 139.323 42.9888 139.121 42.5444" stroke="white" stroke-width="2" stroke-linecap="round"/>
<path d="M145 48C144.876 47.3388 144.424 46.5124 144.218 45.8099C143.93 44.9421 143.724 43.9504 143.189 43.1653C142.406 42.0496 141.212 41.2231 140.389 40.0661C140.101 39.6529 139.895 38.9917 139.483 38.7851C139.154 38.6198 137.96 38 138.001 38" stroke="white" stroke-width="2" stroke-linecap="round"/>
<path d="M140 46C140.386 45.8744 140.696 45.414 140.928 45.1209C141.817 44.0744 142.667 43.0698 143.594 42.0651C144.715 40.893 145.836 39.5953 147.073 38.5488C147.575 38.1302 148.039 37.7116 148.542 37.293C148.696 37.1674 149.121 37 148.967 37" stroke="white" stroke-width="2" stroke-linecap="round"/>
<path d="M144.773 12.4192C145.978 11.6201 142.363 14.0174 141.158 14.8166C140.923 14.9723 140.657 15.2189 140.39 15.3215C140.246 15.3771 140.159 14.746 140.153 14.7074C139.944 13.4573 140.052 12.1648 140.182 10.9132C140.394 8.86933 140.851 6.8829 141.228 4.86669C141.285 4.56297 141.471 4.1 141.462 3.7872C141.453 3.44484 141.323 4.45784 141.258 4.79422C140.865 6.84947 140.393 8.88904 139.977 10.94C139.847 11.586 139.722 12.2339 139.565 12.8744C139.499 13.1441 139.427 13.8276 139.197 14.0422C139.151 14.086 138.474 11.9608 138.428 11.7977C138.142 10.78 137.998 9.5961 137.548 8.63714C137.495 8.52525 137.442 8.39306 137.324 8.51068C136.412 9.42378 135.806 10.6368 135.176 11.7447C135.153 11.7853 134.119 13.6749 133.984 13.4899C133.711 13.1176 133.671 12.4916 133.616 12.0685C133.487 11.0676 133.392 10.0585 133.283 9.05528" stroke="#FFBA36" stroke-width="4" stroke-linecap="round"/>
<path d="M130.242 16.8971C133.749 14.1823 137.727 10.6768 142.648 17.4592C140.815 14.8777 138.599 11.3544 146.076 6.39512C143.671 8.40838 139.081 12.0812 134.357 4.95889C135.698 8.25491 141.384 9.50683 130.242 16.8971Z" stroke="white" stroke-width="2" stroke-linecap="round" stroke-linejoin="round"/>
<path d="M128.103 58C128.198 59.0699 129.347 60.1884 129.969 60.9179C131.453 62.7659 133.033 64.5166 134.421 66.4132C134.66 66.7536 136 68.018 136 68.5043C136 68.8934 132.602 67.7749 132.41 67.7262C128.103 66.2673 124.034 63.9816 120.11 61.7446C119.87 61.5987 119.344 60.9179 119.392 61.2097C119.44 61.4528 119.918 61.7932 120.062 61.8905C120.923 62.7659 121.689 63.6899 122.455 64.6625C123.556 66.0728 124.944 67.629 125.518 69.3797C125.853 70.3037 125.997 71.2763 126.188 72.2489C126.236 72.4921 126.523 73.1243 126.045 72.9784C124.226 72.4435 122.263 70.9845 120.78 69.8174C119.631 68.942 118.339 68.0667 117.286 67.094C116.759 66.6077 117.094 67.2886 117.238 67.5317" stroke="#A736FF" stroke-width="4" stroke-linecap="round"/>
<path d="M127.5 75C131.642 75 135 71.6421 135 67.5C135 63.3579 131.642 60 127.5 60C123.358 60 120 63.3579 120 67.5C120 71.6421 123.358 75 127.5 75Z" stroke="white" stroke-width="2"/>
<path d="M11.9567 61.3207C11.0135 60.225 13.843 63.5122 14.7862 64.608C14.97 64.8215 15.2478 65.0548 15.383 65.3069C15.4561 65.4434 14.8408 65.6077 14.8033 65.619C13.589 65.9827 12.293 66.0362 11.0351 66.0634C8.98066 66.1077 6.95274 65.902 4.90529 65.7798C4.59687 65.7614 4.11432 65.6346 3.80502 65.682C3.46649 65.7339 4.48782 65.7368 4.8296 65.7587C6.91784 65.8924 9.00043 66.1069 11.0871 66.263C11.7444 66.3122 12.4029 66.3555 13.0579 66.4311C13.3338 66.4629 14.0208 66.4486 14.2625 66.65C14.3117 66.6911 12.2876 67.6277 12.1315 67.6935C11.1574 68.104 10.0007 68.3951 9.10534 68.961C9.00087 69.027 8.87637 69.0965 9.00773 69.1984C10.0275 69.9897 11.3066 70.4393 12.4845 70.9268C12.5277 70.9446 14.5314 71.7341 14.3648 71.8917C14.0294 72.2089 13.4132 72.3267 13.0002 72.4336C12.0233 72.6865 11.034 72.9069 10.0522 73.1402" stroke="#36ABFF" stroke-width="4" stroke-linecap="round"/>
<path d="M18.2116 75.1794C15.0805 72.0383 11.1062 68.5287 17.2219 62.8003C14.8891 64.9409 11.6698 67.5793 5.81661 60.7792C8.11403 62.9136 12.3308 67.0104 5.85333 72.5858C8.95625 70.8435 9.48919 65.0459 18.2116 75.1794Z" stroke="white" stroke-width="2" stroke-linecap="round" stroke-linejoin="round"/>
</svg>
