<svg width="114" height="55" viewBox="0 0 114 55" fill="none" xmlns="http://www.w3.org/2000/svg">
<path d="M6 41.6238C6 37.7993 7.72763 34.6064 9.53917 31.2578C10.4985 29.4845 10.4112 24.9784 11.53 23.2836C12.5492 21.7399 12.8803 20.4111 13.9695 18.9184C16.5171 15.4271 19.4376 13.7952 21.6521 10.1112C22.9896 7.886 20.035 14.9778 19.2345 17.4134C16.9732 24.294 15.3121 31.2923 13.4273 38.2606C12.7786 40.6586 12.1861 43.1037 11.882 45.5629C11.7768 46.4138 11.8322 47.2877 11.8322 48.1428C11.8322 49.4554 11.8069 49.1668 11.8446 47.9125C11.9524 44.3278 12.9607 40.9381 14.0753 37.5235C15.1749 34.1549 16.2828 30.849 18.3372 27.86C21.2686 23.5955 25.2861 20.4315 28.88 16.6993C30.149 15.3815 31.1466 13.9393 31.8833 12.3111C32.2913 11.4093 32.3857 10.2212 33.0049 9.4201C33.4355 8.86284 32.7987 10.7776 32.6435 11.4472C31.8731 14.77 30.6715 17.999 29.8271 21.3064C28.4265 26.7925 27.1024 32.308 25.9639 37.846C25.723 39.0177 25.291 40.3234 25.291 41.5201C25.291 42.0641 24.7529 43.5719 25.1165 43.1441C25.3732 42.8422 25.5592 42.2776 25.7022 41.9578C26.7833 39.5403 27.7701 37.0878 28.8426 34.667C31.5942 28.4563 34.5159 22.1514 38.0145 16.2617C39.2006 14.2649 40.5691 12.2571 42.4509 10.7446C43.1387 10.1919 43.571 9.56662 44.1333 8.91332C44.2523 8.77506 45.0977 7.76162 44.9807 8.3835C43.9551 13.8338 41.9588 19.2539 40.3698 24.5775C39.0808 28.8962 38.3894 33.408 37.192 37.7653C36.7153 39.5003 36.058 41.5665 36.058 43.3745C36.058 44.4444 35.3798 45.6832 35.2106 46.7607C35.0089 48.0449 34.555 50.4613 35.7714 47.7052C38.8405 40.7509 42.4692 33.993 48.5697 28.8621C51.1401 26.7002 53.4763 24.7808 54.8505 21.7211C55.8507 19.4941 56.0022 16.9739 56.7946 14.6722C57.336 13.0993 57.1435 11.367 57.1435 9.74259C57.1435 8.3215 57.3678 7.76629 57.3678 9.62742C57.3678 11.1793 57.4534 12.7559 57.318 14.3036C57.1321 16.4279 56.2964 18.5062 55.7976 20.5808C54.6047 25.5422 53.011 30.4121 51.76 35.3581C51.0818 38.0392 50.7967 40.8195 50.0776 43.4781C49.8564 44.2959 49.5727 45.3587 49.5168 46.1848C49.5151 46.2109 49.5232 44.5162 49.5542 44.1577C49.7899 41.4353 51.0054 38.6082 52.4578 36.2565C54.7762 32.5026 58.0279 29.2963 60.8447 25.8675C63.3577 22.8084 65.2501 19.416 65.9914 15.6167C66.2513 14.2845 66.5445 12.9194 66.5647 11.5624C66.576 10.7968 66.5025 10.0661 66.7391 9.32796C66.8746 8.90546 66.789 8.91464 66.789 9.4201C66.789 10.5697 67.0025 11.7017 67.0133 12.8524C67.0559 17.4224 67.161 22.0296 66.9011 26.5931C66.599 31.8979 66.116 37.1512 66.116 42.4646C66.116 43.0822 66.0362 45.3832 65.5552 45.8278C64.8457 46.4835 65.7066 43.9643 65.9914 43.075C66.6858 40.9069 68.0772 38.8907 69.4807 37.0627C70.6553 35.5331 72.0013 34.1254 73.1694 32.5939C74.6397 30.6661 75.3751 28.6225 76.098 26.3858C77.3473 22.5203 78.446 18.5795 80.6964 15.0868C81.486 13.8614 82.3385 12.7256 82.8897 11.4012C83.6152 9.65777 83.4154 12.0211 83.2386 12.7487C82.6998 14.9671 81.3877 17.0039 80.5219 19.1181C79.0376 22.7427 77.7107 26.4568 76.7086 30.2212C75.4705 34.8722 74.8643 39.889 74.8643 44.6875C74.8643 45.5293 74.8992 44.4232 74.964 44.1807C75.5895 41.8391 77.0605 39.4984 78.1542 37.3277C81.2886 31.1063 85.0507 25.1834 88.8963 19.3254C90.1546 17.4087 91.2257 15.4514 92.3607 13.4744C92.9739 12.4063 93.4762 11.2775 94.1428 10.2379C94.3222 9.95795 94.5225 9.091 94.716 9.62742C95.2073 10.9896 94.8352 12.9494 94.8282 14.3497C94.8098 17.9914 94.3399 21.4657 93.5944 25.0382C92.3449 31.0264 90.5714 36.8593 88.8215 42.7295C88.6425 43.33 88.5425 44.0783 88.2109 44.6299C87.9016 45.1445 88.3199 43.4386 88.3605 43.3284C89.26 40.8862 90.5232 38.5352 91.5631 36.1413C93.6986 31.2254 95.9697 26.4182 98.4172 21.6289C100.956 16.6614 103.036 11.019 106.443 6.47155C106.486 6.41309 106.859 5.74997 106.929 6.10298C107.178 7.37259 106.711 9.20517 106.468 10.4452C105.068 17.5601 100.885 24.0811 100.885 31.3614C100.885 33.3398 102.168 35.1134 102.555 37.0512C102.846 38.5127 102.805 40.1852 102.405 41.6238C102.202 42.3531 102.006 43.1512 102.006 43.9043C102.006 44.8762 101.913 45.4199 100.885 45.1482" stroke="#FFBA36" stroke-width="12" stroke-linecap="round"/>
<rect x="5" y="3" width="107" height="48" rx="8" stroke="#171717" stroke-width="3"/>
<path d="M6.26367 8.92137C7.0423 7.93749 7.88999 7.12907 8.63953 6.06356C9.32061 5.09536 10.7776 5.2674 11.6517 4.89926C12.988 4.33641 14.3778 4.41815 15.7671 4.41815C17.8912 4.41815 19.8616 3.03255 21.9538 3.03255C23.0925 3.03255 24.268 2.90086 25.3924 3.16726C26.3973 3.40536 27.3606 4.04389 28.3706 4.23533C30.1105 4.56511 31.9302 4.41815 33.7045 4.41815C35.787 4.41815 37.8695 4.41815 39.9521 4.41815C40.8027 4.41815 41.6533 4.41815 42.5039 4.41815" stroke="#171717" stroke-width="2" stroke-linecap="round"/>
<path d="M44.1553 4.40039C50.8835 4.40039 57.6117 4.40039 64.3399 4.40039C66.4275 4.40039 68.2984 4.62969 70.3506 5.09319C72.1945 5.50965 74.1441 5.26639 76.0093 5.26639C76.8898 5.26639 77.7525 5.43959 78.6424 5.43959C80.5873 5.43959 82.5322 5.43959 84.4771 5.43959C86.3535 5.43959 88.3948 5.65736 90.2103 4.91999" stroke="#171717" stroke-width="2" stroke-linecap="round"/>
<path d="M89.1133 4.91929C93.9509 4.91929 98.7796 4.74609 103.612 4.74609C105.525 4.74609 107.211 5.22376 109.081 5.68907" stroke="#171717" stroke-width="2" stroke-linecap="round"/>
<path d="M110.5 48.1217C105.612 48.1217 105.014 47.7144 100.156 48.39C98.264 48.6532 96.3818 49.1272 94.4894 49.4335C93.2582 49.6328 91.9425 49.381 90.725 49.6273C89.3753 49.9004 87.7825 49.8658 86.4113 49.8658C86.0309 49.8658 84.1764 49.6073 84 50" stroke="#171717" stroke-width="2" stroke-linecap="round"/>
<path d="M91 50C89.8694 50 88.7389 50 87.6083 50C86.5891 50 85.682 49.6335 84.6742 49.4691C81.9991 49.0329 79.2991 49 76.5854 49C73.6223 49 70.7054 49.3333 67.7427 49.3333C66.5605 49.3333 65.3776 49.5316 64.203 49.5556C63.202 49.576 59.9987 49 61 49" stroke="#171717" stroke-width="2" stroke-linecap="round"/>
<path d="M62 49C61.126 49 60.2521 49 59.3781 49C57.9169 49 56.4915 48.75 55.0398 48.75C52.2081 48.75 49.378 48.8049 46.5592 48.5C44.8026 48.31 43.0258 48 41.2614 48C39.3224 48 37.4407 48.312 35.5108 48.375C32.7127 48.4663 29.9618 49.4841 27.1585 49.6181C24.2983 49.7548 15.7132 50 18.5766 50" stroke="#171717" stroke-width="2" stroke-linecap="round"/>
<path d="M22.9553 51.0089C20.0925 51.0089 17.1959 50.8402 14.3995 50.0081C13.3748 49.7033 12.21 49.4501 11.164 49.4501C10.3844 49.4501 9.84329 48.94 9.18755 48.4493C8.09043 47.6285 6.69108 46.3321 6.62894 44.3887C6.53255 41.3745 5.53239 38.6755 5.53239 35.6325C5.53239 34.2429 5.28871 32.7791 5.28871 31.3025C5.28871 30.1509 5.16687 29.0064 5.16687 27.8385C5.16687 25.5801 5.13439 23.2045 5.04503 21.0452C4.94371 18.5965 5.04503 16.1262 5.04503 13.636C5.04503 12.657 5.10294 11.7236 5.38347 10.8263C5.46872 10.5536 5.19046 10.0518 5.5 10" stroke="#171717" stroke-width="2" stroke-linecap="round"/>
</svg>
