<svg width="65" height="53" viewBox="0 0 65 53" fill="none" xmlns="http://www.w3.org/2000/svg">
<path opacity="0.8" d="M6.99991 40.624C6.99991 36.7995 6.72754 33.6066 8.53908 30.258C9.49839 28.4847 8.41109 19.9786 9.52992 18.2838C10.5491 16.7401 10.8802 15.4113 11.9694 13.9186C14.517 10.4273 18.4375 12.7954 20.652 9.11138C21.9895 6.88622 19.0349 13.978 18.2344 16.4136C15.9731 23.2942 14.312 30.2925 12.4272 37.2608C11.7785 39.6588 11.186 40.1039 10.8819 42.5631C10.7767 43.414 10.8321 44.288 10.8321 45.1431C10.8321 46.4556 10.8068 46.167 10.8445 44.9127C10.9523 41.328 11.9606 39.9383 13.0752 36.5237C14.1748 33.1551 15.2827 29.8492 17.3372 26.8603C20.2685 22.5957 24.286 19.4317 27.8799 15.6995C29.1489 14.3817 30.1465 12.9396 30.8832 11.3113C31.2912 10.4095 31.3856 9.22144 32.0048 8.42031C32.4354 7.86305 31.7986 9.77782 31.6434 10.4474C30.873 13.7702 29.6714 16.9992 28.827 20.3067C27.4264 25.7927 26.1023 31.3082 24.9638 36.8462C24.7229 38.0179 24.2909 39.3236 24.2909 40.5203C24.2909 41.0643 23.7528 42.5721 24.1164 42.1443C24.3731 41.8424 24.5591 41.2778 24.7021 40.958C25.7832 38.5406 26.77 36.0881 27.8425 33.6673C30.5941 27.4566 33.5158 21.1517 37.0144 15.2619C38.2005 13.2652 39.569 11.2573 41.4509 9.74486C42.1386 9.1921 42.5709 8.56684 43.1332 7.91353C43.2522 7.77528 44.0976 6.76183 43.9806 7.38372C42.955 12.834 40.9587 18.2541 39.3697 23.5777C38.0807 27.8965 37.3893 32.4082 36.192 36.7655C35.7152 38.5005 35.0579 37.5667 35.0579 39.3747C35.0579 40.4447 34.3797 41.6835 34.2105 42.7609C34.0088 44.0451 33.5549 46.4615 34.7713 43.7054C37.8404 36.7511 41.4692 32.9932 47.5696 27.8623C50.14 25.7004 52.4762 23.781 53.8504 20.7213C54.8506 18.4943 55.0021 15.9741 55.7945 13.6724C56.336 12.0995 56.1434 10.3672 56.1434 8.74281C56.1434 7.32172 56.3677 6.7665 56.3677 8.62763C56.3677 10.1795 56.4533 11.7561 56.3179 13.3038C56.132 15.4281 55.2963 17.5065 54.7975 19.581C53.6046 24.5425 52.0109 29.4123 50.7599 34.3583C50.0817 37.0395 49.7966 39.8198 49.0775 42.4784C48.8563 43.2961 48.5726 44.3589 48.5167 45.185C48.515 45.2111 48.5231 43.5164 48.5541 43.1579C48.7898 40.4355 52.0053 42.6085 53.4577 40.2567C55.7761 36.5028 55.0278 28.2965 57.8446 24.8677" stroke="#6E6E70" stroke-width="13" stroke-linecap="round"/>
<rect x="4" y="2" width="57" height="48" rx="8" stroke="#171717" stroke-width="3"/>
<path d="M5.26367 7.92137C6.0423 6.93749 6.88999 6.12907 7.63953 5.06356C8.32061 4.09536 9.77765 4.2674 10.6517 3.89926C11.988 3.33641 13.3778 3.41815 14.7671 3.41815C16.8912 3.41815 18.8616 2.03255 20.9538 2.03255C22.0925 2.03255 23.268 1.90086 24.3924 2.16726C25.3973 2.40536 26.3606 3.04389 27.3706 3.23533C29.1105 3.56511 30.9302 3.41815 32.7045 3.41815C34.787 3.41815 36.8695 3.41815 38.9521 3.41815C39.8027 3.41815 40.6533 3.41815 41.5039 3.41815" stroke="#171717" stroke-width="2" stroke-linecap="round"/>
<path d="M58 48C57.1856 48 56.3713 48 55.5569 48C54.1953 48 52.8671 47.75 51.5144 47.75C48.8757 47.75 46.2385 47.8049 43.612 47.5C41.9751 47.31 40.3195 47 38.6754 47C36.8686 47 35.1152 47.312 33.3168 47.375C30.7096 47.4663 28.1462 48.4841 25.5341 48.6181C22.8689 48.7548 14.8691 49 17.5373 49" stroke="#171717" stroke-width="2" stroke-linecap="round"/>
<path d="M21.9553 50.0089C19.0925 50.0089 16.1959 49.8402 13.3995 49.0081C12.3748 48.7033 11.21 48.4501 10.164 48.4501C9.38443 48.4501 8.84329 47.94 8.18755 47.4493C7.09043 46.6285 5.69108 45.3321 5.62894 43.3887C5.53255 40.3745 4.53239 37.6755 4.53239 34.6325C4.53239 33.2429 4.28871 31.7791 4.28871 30.3025C4.28871 29.1509 4.16687 28.0064 4.16687 26.8385C4.16687 24.5801 4.13439 22.2045 4.04503 20.0452C3.94371 17.5965 4.04503 15.1262 4.04503 12.636C4.04503 11.657 4.10294 10.7236 4.38347 9.82632C4.46872 9.55365 4.19046 9.05177 4.5 9" stroke="#171717" stroke-width="2" stroke-linecap="round"/>
</svg>
