<svg width="70" height="56" viewBox="0 0 70 56" fill="none" xmlns="http://www.w3.org/2000/svg">
<path d="M7.43397 39.2809C7.43397 35.2785 6.97784 34.9371 7.62726 31.4328C7.97116 29.577 7.93986 24.8613 8.34096 23.0878C8.70631 21.4722 8.10803 17.0816 8.4985 15.5195C9.41179 11.8658 11.1758 13.158 11.9696 9.30261C12.4491 6.97395 11.3899 14.3956 11.1029 16.9445C10.2923 24.1451 9.69681 28.4689 9.0211 35.7613C8.78857 38.2708 8.57615 40.8297 8.46714 43.4032C8.42942 44.2937 8.44927 45.2083 8.44927 46.1032C8.44927 47.4768 8.44022 47.1748 8.45374 45.8621C8.49236 42.1107 8.85383 38.5634 9.25341 34.9899C9.6476 31.4646 10.0448 31.0049 10.7813 27.877C11.8321 23.4141 13.2724 20.1029 14.5608 16.1972C15.0157 14.8181 15.3733 13.3088 15.6374 11.6048C15.7837 10.6612 15.8175 9.41778 16.0395 8.5794C16.1939 7.99622 15.9656 10 15.9099 10.7008C15.6338 14.1781 15.203 17.5573 14.9003 21.0186C14.3982 26.7598 13.9235 32.5318 13.5154 38.3274C13.429 39.5536 13.2741 40.92 13.2741 42.1724C13.2741 42.7417 13.0812 44.3196 13.2116 43.872C13.3036 43.556 13.3703 42.9652 13.4216 42.6305C13.8091 40.1006 14.1629 37.534 14.5474 35.0006C15.5338 28.5011 16.5812 21.9029 17.8354 15.7392C18.2606 13.6496 18.7512 11.5483 19.4258 9.96555C19.6724 9.38708 19.8274 8.73274 20.0289 8.04905C20.0716 7.90436 20.3747 6.84378 20.3327 7.49459C19.9651 13.1984 19.2494 18.8706 18.6798 24.4418C18.2176 28.9614 17.9698 33.683 17.5406 38.243C17.3696 40.0586 17.134 42.2209 17.134 44.1131C17.134 45.2328 16.8909 46.5292 16.8302 47.6568C16.7579 49.0007 16.5952 49.5295 17.0313 46.6452C18.1315 39.3674 19.4324 34.2952 21.6193 28.9257C22.5408 26.6633 23.3783 24.6546 23.8709 21.4525C24.2295 19.122 24.2838 16.4845 24.5679 14.0758C24.762 12.4297 24.693 10.6169 24.693 8.9169C24.693 7.42971 24.7734 6.84867 24.7734 8.79636C24.7734 10.4204 24.8041 12.0703 24.7555 13.6901C24.6889 15.9131 24.3893 18.0882 24.2105 20.2592C23.7828 25.4514 23.2115 30.5477 22.763 35.7238C22.5199 38.5297 22.4177 41.4393 22.1599 44.2215C22.0806 45.0773 21.9789 46.1896 21.9589 47.0541C21.9582 47.0814 21.9611 45.3079 21.9723 44.9327C22.0567 42.0837 22.4925 39.1251 23.0132 36.664C23.8443 32.7355 25.01 29.3801 26.0198 25.7918C26.9207 22.5904 27.5991 19.0402 27.8649 15.0642C27.958 13.6701 28.0631 12.2415 28.0704 10.8213C28.0744 10.0202 28.0481 9.25541 28.1329 8.48297C28.1815 8.04082 28.1508 8.05043 28.1508 8.5794C28.1508 9.78249 30.4343 11.9038 30.4381 13.108C30.4534 17.8906 28.2841 21.7754 28.191 26.5511C28.0827 32.1027 27.9095 37.6003 27.9095 43.1608C27.9095 43.8072 27.8809 46.2152 27.7085 46.6804C27.4541 47.3667 25.9177 43.2115 26.0198 42.2809C26.2687 40.012 28.6126 39.4207 29.1157 37.5077C29.5368 35.9069 30.0194 34.4338 30.4381 32.831C30.9652 30.8136 31.2288 28.6749 31.488 26.3342C31.9358 22.2889 32.3297 18.1648 33.1365 14.5097C33.4195 13.2273 33.7251 12.0386 33.9227 10.6526C34.1828 8.82812 34.1112 11.3014 34.0478 12.0629C33.8547 14.3845 33.3843 16.516 33.0739 18.7284C32.5418 22.5216 32.0661 26.4086 31.7069 30.348C31.263 35.2153 31.0457 40.4655 31.0457 45.4872C31.0457 46.3681 31.0582 45.2105 31.0814 44.9568C31.3057 42.5063 31.833 40.0567 32.2251 37.785C33.3487 31.2743 34.6974 25.0759 36.076 18.9454C36.5271 16.9395 36.9111 14.8913 37.318 12.8222C37.5378 11.7045 37.7179 10.5232 37.9568 9.4352C38.0212 9.14227 38.093 8.235 38.1624 8.79636C38.3385 10.2219 38.2051 12.2729 38.2026 13.7383C38.196 17.5494 38.0275 21.1853 37.7603 24.9239C37.3123 31.1906 36.6765 37.2949 36.0492 43.4381C35.9851 44.0665 35.9492 44.8496 35.8303 45.4269C35.7194 45.9654 35.8694 44.1802 35.8839 44.0648C36.2064 41.509 36.6593 39.0487 37.0321 36.5435C37.7976 31.3989 38.6118 26.3681 39.4892 21.3561C40.3992 16.1575 41.1451 14.2527 42.3662 9.49371C42.3819 9.43254 42.5156 12.7386 42.5405 13.108C42.63 14.4367 42.4626 12.3545 42.3752 13.6522C41.8734 21.098 40.3737 23.9223 40.3737 31.5413C40.3737 33.6116 40.8339 35.4678 40.9724 37.4957C41.0768 39.0252 42.6839 40.7755 42.5405 42.2809C42.4677 43.0442 40.7758 43.8793 40.7758 44.6675C40.7758 45.6846 40.7425 46.2536 40.3737 45.9693" stroke="#DBDBDB" stroke-width="13" stroke-linecap="round"/>
<path d="M41.4937 46.7953C41.4937 45.5412 41.4799 44.2802 41.5116 43.0283C41.5959 39.7007 42.1948 36.7281 42.7855 33.8175C43.4817 30.3867 44.2254 27.0103 44.9653 23.6421C45.5137 21.1457 45.0938 15.6592 45.6134 13.1221C45.9718 11.3716 47.032 12.6698 47.5084 11.0433C47.5417 10.9298 47.6906 10.3931 47.7058 10.6643C47.8168 12.6541 47.7249 14.9282 47.7013 16.9235C47.5816 27.0352 49.1379 36.7016 48.8398 46.7953C48.8307 47.103 46.2771 50.1004 46.3557 48.4721C46.5769 43.8901 45.7041 39.2883 46.3557 35.0464C47.2448 29.2589 49.9488 23.258 51.1729 17.8653C51.5829 16.0587 52.18 11.4518 53.0029 10.6856C53.0942 10.6006 53.4985 10.2512 53.5859 10.5249C53.801 11.1979 53.4499 14.3566 53.4065 15.0498C57.0851 13.1221 52.3903 30.5167 52.1103 35.0464C51.9232 38.0736 51.8398 41.1022 51.6842 44.1308C51.6786 44.2395 52.0053 41.2511 52.1327 40.6854C53.1459 36.1884 54.1632 52.6946 55.2545 48.3172C56.4776 43.4109 57.7853 17.6748 59.2015 13.1221C59.3373 12.6855 60.109 9.72191 60.4304 10.0212C60.8784 10.4383 60.8786 13.0968 60.9059 13.9949C61.0297 18.072 60.8275 22.1338 60.4618 26.0998C60.1321 29.6752 59.7232 33.2134 59.3002 36.7232C59.0749 38.5917 58.8149 40.463 58.7081 42.4081C58.6878 42.7776 58.5964 44.0197 58.8247 43.3039C60.2138 38.9486 61.3702 34.0545 62.6417 29.4763" stroke="#DBDBDB" stroke-width="13" stroke-linecap="round"/>
<rect x="6" y="4" width="57" height="48" rx="8" stroke="#171717" stroke-width="2" stroke-linecap="round" stroke-linejoin="round" stroke-dasharray="2 6"/>
</svg>
