<svg width="112" height="55" viewBox="0 0 112 55" fill="none" xmlns="http://www.w3.org/2000/svg">
<path opacity="0.8" d="M6.99961 40.6238C6.99961 36.7993 5.72724 35.6064 7.53878 32.2578C8.49809 30.4845 8.41078 25.9784 9.52962 24.2836C10.5488 22.7399 8.87988 18.4111 9.9691 16.9184C12.5167 13.4271 17.4372 14.7952 19.6517 11.1112C20.9892 8.886 18.0346 15.9778 17.2341 18.4134C14.9728 25.294 13.3117 32.2923 11.4269 39.2606C10.7782 41.6586 10.1857 44.1037 9.88161 46.5629C9.77638 47.4138 9.83176 48.2877 9.83176 49.1428C9.83176 50.4554 9.80652 42.1668 9.84422 40.9125C9.95196 37.3278 10.9603 41.9381 12.0749 38.5235C13.1745 35.1549 14.2824 31.849 16.3369 28.86C19.2682 24.5955 23.2857 21.4315 26.8796 17.6993C28.1486 16.3815 29.1462 14.9393 29.8829 13.3111C30.2909 12.4093 30.3853 11.2212 31.0045 10.4201C31.4351 9.86284 30.7983 11.7776 30.6431 12.4472C29.8727 15.77 28.6711 18.999 27.8267 22.3064C26.4261 27.7925 25.102 33.308 23.9635 38.846C23.7226 40.0177 23.2906 41.3234 23.2906 42.5201C23.2906 43.0641 22.7525 44.5719 23.1161 44.1441C23.3728 43.8422 23.5588 43.2776 23.7018 42.9578C24.7829 40.5403 25.7697 38.0878 26.8422 35.667C29.5938 29.4563 32.5155 23.1514 36.0141 17.2617C37.2002 15.2649 38.5687 13.2571 40.4506 11.7446C41.1383 11.1919 41.5706 10.5666 42.1329 9.91332C42.2519 9.77506 43.0973 8.76162 42.9803 9.3835C41.9547 14.8338 39.9584 20.2539 38.3694 25.5775C37.0804 29.8962 36.389 34.408 35.1917 38.7653C34.7149 40.5003 34.0576 42.5665 34.0576 44.3745C34.0576 45.4444 33.3794 46.6832 33.2102 47.7607C33.0085 49.0449 32.5546 48.4613 33.771 45.7052C36.8401 38.7509 40.4688 34.993 46.5693 29.8621C49.1397 27.7002 51.4759 25.7808 52.8501 22.7211C53.8503 20.4941 54.0018 17.9739 54.7942 15.6722C55.3357 14.0993 55.1431 12.367 55.1431 10.7426C55.1431 9.3215 55.3674 8.76629 55.3674 10.6274C55.3674 12.1793 55.453 13.7559 55.3176 15.3036C55.1317 17.4279 54.296 19.5062 53.7972 21.5808C52.6043 26.5422 51.0106 31.4121 49.7596 36.3581C49.0814 39.0392 48.7963 41.8195 48.0772 44.4781C47.856 45.2959 47.5723 46.3587 47.5164 47.1848C47.5147 47.2109 47.5228 45.5162 47.5538 45.1577C47.7895 42.4353 53.005 45.6082 54.4574 43.2565C56.7758 39.5026 56.0275 30.2963 58.8443 26.8675C61.3573 23.8084 63.2497 20.416 63.991 16.6167C64.2509 15.2845 64.5441 13.9194 64.5643 12.5624C64.5756 11.7968 64.5021 11.0661 64.7387 10.328C64.8742 9.90546 64.7886 9.91464 64.7886 10.4201C64.7886 11.5697 68.0022 9.7017 68.0129 10.8524C68.0555 15.4224 65.1606 23.0296 64.9007 27.5931C64.5986 32.8979 64.1156 38.1512 64.1156 43.4646C64.1156 44.0822 64.0358 46.3832 63.5548 46.8278C62.8453 47.4835 63.7062 44.9643 63.991 44.075C64.6854 41.9069 66.0768 39.8907 67.4803 38.0627C68.6549 36.5331 70.0009 35.1254 71.1691 33.5939C72.6393 31.6661 73.3747 29.6225 74.0976 27.3858C75.3469 23.5203 76.4456 19.5795 78.696 16.0868C79.4856 14.8614 80.3381 13.7256 80.8893 12.4012C81.6148 10.6578 81.415 13.0211 81.2382 13.7487C80.6994 15.9671 79.3874 18.0039 78.5216 20.1181C77.0372 23.7427 75.7103 27.4568 74.7082 31.2212C73.4701 35.8722 72.8639 40.889 72.8639 45.6875C72.8639 46.5293 72.8988 45.4232 72.9636 45.1807C73.5891 42.8391 75.0601 40.4984 76.1538 38.3277C79.2882 32.1063 83.0503 26.1834 86.8959 20.3254C88.1542 18.4087 89.2253 16.4514 90.3603 14.4744C90.9735 13.4063 91.4758 12.2775 92.1424 11.2379C92.3218 10.9579 92.5222 10.091 92.7156 10.6274C93.2069 11.9896 92.8348 13.9494 92.8278 15.3497C92.8094 18.9914 92.3395 22.4657 91.594 26.0382C90.3445 32.0264 88.571 37.8593 86.8212 43.7295C86.6421 44.33 86.5421 45.0783 86.2105 45.6299C85.9012 46.1445 86.3195 44.4386 86.3601 44.3284C87.2596 41.8862 88.5229 39.5352 89.5628 37.1413C91.6982 32.2254 93.9694 27.4182 96.4168 22.6289C98.9553 17.6614 101.036 12.019 104.442 7.47155C104.486 7.41309 104.859 6.74997 104.928 7.10298C105.178 8.37259 104.711 10.2052 104.467 11.4452C103.067 18.5601 98.8842 25.0811 98.8842 32.3614C98.8842 34.3398 103.168 24.1134 103.554 26.0512C103.845 27.5127 100.805 41.1852 100.405 42.6238C100.202 43.3531 100.006 44.1512 100.006 44.9043C100.006 45.8762 99.913 46.4199 98.8842 46.1482" stroke="#6E6E70" stroke-width="13" stroke-linecap="round"/>
<rect x="3" y="4" width="107" height="48" rx="8" stroke="#171717" stroke-width="3"/>
<path d="M4.26367 9.92137C5.0423 8.93749 5.88999 8.12907 6.63953 7.06356C7.32061 6.09536 8.77765 6.2674 9.65165 5.89926C10.988 5.33641 12.3778 5.41815 13.7671 5.41815C15.8912 5.41815 17.8616 4.03255 19.9538 4.03255C21.0925 4.03255 22.268 3.90086 23.3924 4.16726C24.3973 4.40536 25.3606 5.04389 26.3706 5.23533C28.1105 5.56511 29.9302 5.41815 31.7045 5.41815C33.787 5.41815 35.8695 5.41815 37.9521 5.41815C38.8027 5.41815 39.6533 5.41815 40.5039 5.41815" stroke="#171717" stroke-width="2" stroke-linecap="round"/>
<path d="M42.1553 5.40039C48.8835 5.40039 55.6117 5.40039 62.3399 5.40039C64.4275 5.40039 66.2984 5.62969 68.3506 6.09319C70.1945 6.50965 72.1441 6.26639 74.0093 6.26639C74.8898 6.26639 75.7525 6.43959 76.6424 6.43959C78.5873 6.43959 80.5322 6.43959 82.4771 6.43959C84.3535 6.43959 86.3948 6.65736 88.2103 5.91999" stroke="#171717" stroke-width="2" stroke-linecap="round"/>
<path d="M87.1133 5.91929C91.9509 5.91929 96.7796 5.74609 101.612 5.74609C103.525 5.74609 105.211 6.22376 107.081 6.68907" stroke="#171717" stroke-width="2" stroke-linecap="round"/>
<path d="M108.5 49.1217C103.612 49.1217 103.014 48.7144 98.156 49.39C96.264 49.6532 94.3818 50.1272 92.4894 50.4335C91.2582 50.6328 89.9425 50.381 88.725 50.6273C87.3753 50.9004 85.7825 50.8658 84.4113 50.8658C84.0309 50.8658 82.1764 50.6073 82 51" stroke="#171717" stroke-width="2" stroke-linecap="round"/>
<path d="M89 51C87.8694 51 86.7389 51 85.6083 51C84.5891 51 83.682 50.6335 82.6742 50.4691C79.9991 50.0329 77.2991 50 74.5854 50C71.6223 50 68.7054 50.3333 65.7427 50.3333C64.5605 50.3333 63.3776 50.5316 62.203 50.5556C61.202 50.576 57.9987 50 59 50" stroke="#171717" stroke-width="2" stroke-linecap="round"/>
<path d="M60 50C59.126 50 58.2521 50 57.3781 50C55.9169 50 54.4915 49.75 53.0398 49.75C50.2081 49.75 47.378 49.8049 44.5592 49.5C42.8026 49.31 41.0258 49 39.2614 49C37.3224 49 35.4407 49.312 33.5108 49.375C30.7127 49.4663 27.9618 50.4841 25.1585 50.6181C22.2983 50.7548 13.7132 51 16.5766 51" stroke="#171717" stroke-width="2" stroke-linecap="round"/>
<path d="M20.9553 52.0089C18.0925 52.0089 15.1959 51.8402 12.3995 51.0081C11.3748 50.7033 10.21 50.4501 9.16404 50.4501C8.38443 50.4501 7.84329 49.94 7.18755 49.4493C6.09043 48.6285 4.69108 47.3321 4.62894 45.3887C4.53255 42.3745 3.53239 39.6755 3.53239 36.6325C3.53239 35.2429 3.28871 33.7791 3.28871 32.3025C3.28871 31.1509 3.16687 30.0064 3.16687 28.8385C3.16687 26.5801 3.13439 24.2045 3.04503 22.0452C2.94371 19.5965 3.04503 17.1262 3.04503 14.636C3.04503 13.657 3.10294 12.7236 3.38347 11.8263C3.46872 11.5536 3.19046 11.0518 3.5 11" stroke="#171717" stroke-width="2" stroke-linecap="round"/>
</svg>
