<svg width="118" height="56" viewBox="0 0 118 56" fill="none" xmlns="http://www.w3.org/2000/svg">
<path d="M7.6916 39.2809C7.6916 35.2785 6.83535 34.9371 8.05443 31.4328C8.70001 29.577 8.64126 24.8613 9.39419 23.0878C10.08 21.4722 8.95694 17.0816 9.68993 15.5195C11.4043 11.8658 14.7157 13.158 16.2059 9.30261C17.106 6.97395 15.1176 14.3956 14.579 16.9445C13.0572 24.1451 11.9394 28.4689 10.671 35.7613C10.2344 38.2708 9.83569 40.8297 9.63105 43.4032C9.56024 44.2937 9.59751 45.2083 9.59751 46.1032C9.59751 47.4768 9.58053 47.1748 9.6059 45.8621C9.6784 42.1107 10.3569 38.5634 11.107 34.9899C11.847 31.4646 12.5926 31.0049 13.9752 27.877C15.9478 23.4141 18.6514 20.1029 21.0699 16.1972C21.9239 14.8181 22.5953 13.3088 23.091 11.6048C23.3656 10.6612 23.4292 9.41778 23.8458 8.5794C24.1356 7.99622 23.7071 10 23.6026 10.7008C23.0842 14.1781 22.2755 17.5573 21.7073 21.0186C20.7648 26.7598 19.8737 32.5318 19.1076 38.3274C18.9455 39.5536 18.6547 40.92 18.6547 42.1724C18.6547 42.7417 18.2926 44.3196 18.5373 43.872C18.71 43.556 18.8352 42.9652 18.9314 42.6305C19.659 40.1006 20.323 37.534 21.0448 35.0006C22.8965 28.5011 24.8627 21.9029 27.2171 15.7392C28.0153 13.6496 28.9362 11.5483 30.2026 9.96555C30.6655 9.38708 30.9564 8.73274 31.3348 8.04905C31.4148 7.90436 31.9838 6.84378 31.905 7.49459C31.2149 13.1984 29.8714 18.8706 28.8021 24.4418C27.9346 28.9614 27.4694 33.683 26.6636 38.243C26.3428 40.0586 25.9004 42.2209 25.9004 44.1131C25.9004 45.2328 25.4441 46.5292 25.3302 47.6568C25.1944 49.0007 24.889 49.5295 25.7076 46.6452C27.7729 39.3674 30.2149 34.2952 34.3203 28.9257C36.05 26.6633 37.6222 24.6546 38.547 21.4525C39.22 19.122 39.322 16.4845 39.8552 14.0758C40.2196 12.4297 40.09 10.6169 40.09 8.9169C40.09 7.42971 40.241 6.84867 40.241 8.79636C40.241 10.4204 40.2986 12.0703 40.2075 13.6901C40.0824 15.9131 39.52 18.0882 39.1843 20.2592C38.3815 25.4514 37.309 30.5477 36.4672 35.7238C36.0108 38.5297 35.819 41.4393 35.335 44.2215C35.1862 45.0773 34.9952 46.1896 34.9576 47.0541C34.9565 47.0814 34.9619 45.3079 34.9828 44.9327C35.1414 42.0837 35.9594 39.1251 36.9368 36.664C38.4969 32.7355 40.6852 29.3801 42.5808 25.7918C44.2719 22.5904 45.5455 19.0402 46.0443 15.0642C46.2192 13.6701 46.4165 12.2415 46.4301 10.8213C46.4377 10.0202 46.3882 9.25541 46.5475 8.48297C46.6386 8.04082 46.581 8.05043 46.581 8.5794C46.581 9.78249 50.8676 11.9038 50.8748 13.108C50.9035 17.8906 46.8314 21.7754 46.6565 26.5511C46.4532 32.1027 46.1282 37.6003 46.1282 43.1608C46.1282 43.8072 46.0745 46.2152 45.7508 46.6804C45.2733 47.3667 42.3891 43.2115 42.5808 42.2809C43.048 40.012 47.4479 39.4207 48.3925 37.5077C49.1829 35.9069 50.0887 34.4338 50.8748 32.831C51.8642 30.8136 52.3591 28.6749 52.8456 26.3342C53.6863 22.2889 54.4257 18.1648 55.9401 14.5097C56.4715 13.2273 57.0452 12.0386 57.4161 10.6526C57.9043 8.82812 57.7699 11.3014 57.6509 12.0629C57.2883 14.3845 56.4054 16.516 55.8227 18.7284C54.8238 22.5216 53.9309 26.4086 53.2565 30.348C52.4233 35.2153 52.0153 40.4655 52.0153 45.4872C52.0153 46.3681 52.0389 45.2105 52.0824 44.9568C52.5034 42.5063 53.4933 40.0567 54.2293 37.785C56.3386 31.2743 58.8703 25.0759 61.4583 18.9454C62.3051 16.9395 63.0259 14.8913 63.7897 12.8222C64.2023 11.7045 64.5404 10.5232 64.9889 9.4352C65.1097 9.14227 65.2445 8.235 65.3747 8.79636C65.7053 10.2219 65.4549 12.2729 65.4502 13.7383C65.4378 17.5494 65.1216 21.1853 64.6199 24.9239C63.779 31.1906 62.5856 37.2949 61.408 43.4381C61.2875 44.0665 61.2202 44.8496 60.9971 45.4269C60.7889 45.9654 61.0704 44.1802 61.0977 44.0648C61.703 41.509 62.5532 39.0487 63.253 36.5435C64.69 31.3989 66.2184 26.3681 67.8654 21.3561C69.5737 16.1575 70.9739 14.2527 73.2662 9.49371C73.2957 9.43254 73.5465 12.7386 73.5933 13.108C73.7613 14.4367 73.4471 12.3545 73.283 13.6522C72.341 21.098 69.5259 23.9223 69.5259 31.5413C69.5259 33.6116 70.3898 35.4678 70.6497 37.4957C70.8457 39.0252 73.8626 40.7755 73.5933 42.2809C73.4567 43.0442 70.2807 43.8793 70.2807 44.6675C70.2807 45.6846 70.2182 46.2536 69.5259 45.9693" stroke="#DBDBDB" stroke-width="13" stroke-linecap="round"/>
<path d="M71.6286 46.7953C71.6286 45.5412 71.6028 44.2802 71.6623 43.0283C71.8206 39.7007 72.9448 36.7281 74.0535 33.8175C75.3604 30.3867 76.7565 27.0103 78.1455 23.6421C79.1749 21.1457 78.3867 15.6592 79.362 13.1221C80.035 11.3716 82.0251 12.6698 82.9194 11.0433C82.9819 10.9298 83.2615 10.3931 83.2899 10.6643C83.4983 12.6541 83.3258 14.9282 83.2815 16.9235C83.0568 27.0352 85.9783 36.7016 85.4186 46.7953C85.4016 47.103 80.608 50.1004 80.7556 48.4721C81.1707 43.8901 79.5323 39.2883 80.7556 35.0464C82.4246 29.2589 87.5006 23.258 89.7983 17.8653C90.5681 16.0587 91.6889 11.4518 93.2335 10.6856C93.4051 10.6006 94.164 10.2512 94.3281 10.5249C94.7318 11.1979 94.0726 14.3566 93.9913 15.0498C100.897 13.1221 92.0836 30.5167 91.558 35.0464C91.2068 38.0736 91.0503 41.1022 90.7582 44.1308C90.7477 44.2395 91.3609 41.2511 91.6001 40.6854C93.5021 36.1884 95.4117 52.6946 97.4602 48.3172C99.7563 43.4109 102.211 17.6748 104.87 13.1221C105.124 12.6855 106.573 9.72191 107.177 10.0212C108.018 10.4383 108.018 13.0968 108.069 13.9949C108.302 18.072 107.922 22.1338 107.235 26.0998C106.617 29.6752 105.849 33.2134 105.055 36.7232C104.632 38.5917 104.144 40.463 103.943 42.4081C103.905 42.7776 103.734 44.0197 104.162 43.3039C106.77 38.9486 108.941 34.0545 111.327 29.4763" stroke="#DBDBDB" stroke-width="13" stroke-linecap="round"/>
<rect x="5" y="4" width="107" height="48" rx="8" stroke="#171717" stroke-width="2" stroke-linecap="round" stroke-linejoin="round" stroke-dasharray="2 6"/>
</svg>
