<svg width="138" height="56" viewBox="0 0 138 56" fill="none" xmlns="http://www.w3.org/2000/svg">
<path d="M7.21964 39.2809C7.21964 35.2785 6.19535 34.9371 7.65369 31.4328C8.42597 29.577 8.35569 24.8613 9.25639 23.0878C10.0768 21.4722 8.73332 17.0816 9.61018 15.5195C11.6611 11.8658 15.6223 13.158 17.405 9.30261C18.4817 6.97395 16.1031 14.3956 15.4587 16.9445C13.6383 24.1451 12.3011 28.4689 10.7837 35.7613C10.2616 38.2708 9.78454 40.8297 9.53974 43.4032C9.45504 44.2937 9.49962 45.2083 9.49962 46.1032C9.49962 47.4768 9.4793 47.1748 9.50965 45.8621C9.59638 42.1107 10.4081 38.5634 11.3054 34.9899C12.1906 31.4646 13.0825 31.0049 14.7364 27.877C17.0962 23.4141 20.3305 20.1029 23.2237 16.1972C24.2452 14.8181 25.0483 13.3088 25.6414 11.6048C25.9699 10.6612 26.0459 9.41778 26.5443 8.5794C26.891 7.99622 26.3784 10 26.2534 10.7008C25.6332 14.1781 24.6658 17.5573 23.9861 21.0186C22.8586 26.7598 21.7926 32.5318 20.8761 38.3274C20.6822 39.5536 20.3344 40.92 20.3344 42.1724C20.3344 42.7417 19.9012 44.3196 20.1939 43.872C20.4006 43.556 20.5503 42.9652 20.6654 42.6305C21.5358 40.1006 22.3301 37.534 23.1936 35.0006C25.4087 28.5011 27.7607 21.9029 30.5773 15.7392C31.5321 13.6496 32.6338 11.5483 34.1487 9.96555C34.7024 9.38708 35.0504 8.73274 35.5031 8.04905C35.5988 7.90436 36.2795 6.84378 36.1852 7.49459C35.3596 13.1984 33.7525 18.8706 32.4733 24.4418C31.4356 28.9614 30.879 33.683 29.9151 38.243C29.5313 40.0586 29.0022 42.2209 29.0022 44.1131C29.0022 45.2328 28.4562 46.5292 28.32 47.6568C28.1576 49.0007 27.7923 49.5295 28.7715 46.6452C31.2422 39.3674 34.1634 34.2952 39.0745 28.9257C41.1438 26.6633 43.0245 24.6546 44.1307 21.4525C44.9359 19.122 45.0579 16.4845 45.6958 14.0758C46.1317 12.4297 45.9767 10.6169 45.9767 8.9169C45.9767 7.42971 46.1572 6.84867 46.1572 8.79636C46.1572 10.4204 46.2262 12.0703 46.1171 13.6901C45.9675 15.9131 45.2947 18.0882 44.8932 20.2592C43.9329 25.4514 42.6498 30.5477 41.6428 35.7238C41.0968 38.5297 40.8673 41.4393 40.2884 44.2215C40.1103 45.0773 39.8819 46.1896 39.837 47.0541C39.8355 47.0814 39.8421 45.3079 39.8671 44.9327C40.0568 42.0837 41.0353 39.1251 42.2046 36.664C44.0709 32.7355 46.6886 29.3801 48.9562 25.7918C50.9793 22.5904 52.5028 19.0402 53.0995 15.0642C53.3088 13.6701 53.5448 12.2415 53.561 10.8213C53.5701 10.0202 53.511 9.25541 53.7015 8.48297C53.8105 8.04082 53.7416 8.05043 53.7416 8.5794C53.7416 9.78249 58.8694 11.9038 58.8781 13.108C58.9124 17.8906 54.0411 21.7754 53.8319 26.5511C53.5887 32.1027 53.1998 37.6003 53.1998 43.1608C53.1998 43.8072 53.1356 46.2152 52.7484 46.6804C52.1772 47.3667 48.727 43.2115 48.9562 42.2809C49.5152 40.012 54.7786 39.4207 55.9085 37.5077C56.8541 35.9069 57.9377 34.4338 58.8781 32.831C60.0617 30.8136 60.6537 28.6749 61.2356 26.3342C62.2413 22.2889 63.1259 18.1648 64.9375 14.5097C65.5731 13.2273 66.2595 12.0386 66.7032 10.6526C67.2872 8.82812 67.1263 11.3014 66.9841 12.0629C66.5503 14.3845 65.4941 16.516 64.7971 18.7284C63.6021 22.5216 62.5339 26.4086 61.7272 30.348C60.7305 35.2153 60.2424 40.4655 60.2424 45.4872C60.2424 46.3681 60.2706 45.2105 60.3227 44.9568C60.8263 42.5063 62.0105 40.0567 62.8909 37.785C65.4142 31.2743 68.4428 25.0759 71.5387 18.9454C72.5516 16.9395 73.4139 14.8913 74.3276 12.8222C74.8213 11.7045 75.2256 10.5232 75.7622 9.4352C75.9067 9.14227 76.068 8.235 76.2237 8.79636C76.6192 10.2219 76.3197 12.2729 76.314 13.7383C76.2993 17.5494 75.9209 21.1853 75.3208 24.9239C74.3149 31.1906 72.8872 37.2949 71.4785 43.4381C71.3344 44.0665 71.2539 44.8496 70.9869 45.4269C70.7379 45.9654 71.0746 44.1802 71.1073 44.0648C71.8315 41.509 72.8484 39.0487 73.6856 36.5435C75.4047 31.3989 77.233 26.3681 79.2033 21.3561C81.2469 16.1575 82.9218 14.2527 85.664 9.49371C85.6993 9.43254 85.9994 12.7386 86.0553 13.108C86.2563 14.4367 85.8805 12.3545 85.6841 13.6522C84.5573 21.098 81.1897 23.9223 81.1897 31.5413C81.1897 33.6116 82.2231 35.4678 82.534 37.4957C82.7685 39.0252 86.3775 40.7755 86.0553 42.2809C85.8919 43.0442 82.0926 43.8793 82.0926 44.6675C82.0926 45.6846 82.0178 46.2536 81.1897 45.9693" stroke="#DBDBDB" stroke-width="13" stroke-linecap="round"/>
<path d="M83.7049 46.7953C83.7049 45.5412 83.674 44.2802 83.7452 43.0283C83.9345 39.7007 85.2794 36.7281 86.6057 33.8175C88.1691 30.3867 89.8392 27.0103 91.5008 23.6421C92.7323 21.1457 91.7893 15.6592 92.9561 13.1221C93.7611 11.3716 96.1418 12.6698 97.2117 11.0433C97.2864 10.9298 97.6209 10.3931 97.6549 10.6643C97.9041 12.6541 97.6978 14.9282 97.6448 16.9235C97.376 27.0352 100.871 36.7016 100.201 46.7953C100.181 47.103 94.4466 50.1004 94.6231 48.4721C95.1198 43.8901 93.1598 39.2883 94.6231 35.0464C96.6197 29.2589 102.692 23.258 105.441 17.8653C106.361 16.0587 107.702 11.4518 109.55 10.6856C109.755 10.6006 110.663 10.2512 110.859 10.5249C111.342 11.1979 110.554 14.3566 110.457 15.0498C118.717 13.1221 108.174 30.5167 107.546 35.0464C107.126 38.0736 106.938 41.1022 106.589 44.1308C106.576 44.2395 107.31 41.2511 107.596 40.6854C109.871 36.1884 112.156 52.6946 114.606 48.3172C117.353 43.4109 120.289 17.6748 123.47 13.1221C123.775 12.6855 125.508 9.72191 126.23 10.0212C127.236 10.4383 127.236 13.0968 127.297 13.9949C127.575 18.072 127.121 22.1338 126.3 26.0998C125.56 29.6752 124.641 33.2134 123.691 36.7232C123.186 38.5917 122.602 40.463 122.362 42.4081C122.316 42.7776 122.111 44.0197 122.624 43.3039C125.743 38.9486 128.34 34.0545 131.195 29.4763" stroke="#DBDBDB" stroke-width="13" stroke-linecap="round"/>
<rect x="4" y="4" width="128" height="48" rx="8" stroke="#171717" stroke-width="2" stroke-linecap="round" stroke-linejoin="round" stroke-dasharray="2 6"/>
</svg>
