<svg width="133" height="56" viewBox="0 0 133 56" fill="none" xmlns="http://www.w3.org/2000/svg">
<path d="M7.94434 43.8852C8.26711 42.4865 9.58234 40.9527 10.3311 39.7762C12.0776 37.0316 14.0312 34.4062 16.0924 31.8904C17.756 29.8598 19.432 27.9135 21.2418 26.0154C22.1873 25.0237 22.8352 23.8793 23.5323 22.7107C24.4167 21.228 25.4381 19.8349 26.5048 18.4793C28.2586 16.2505 29.5519 13.6944 31.3132 11.4765C32.2948 10.2405 33.4433 9.0075 34.6966 8.04069C35.4209 7.48195 35.4581 7.34327 35.2911 8.51279C34.8093 11.885 32.6885 15.0075 31.0771 17.9198C28.7508 22.1244 26.472 26.3896 23.9957 30.5091C22.2006 33.4953 20.5759 36.4335 19.0386 39.5576C17.5986 42.4842 16.3738 45.4125 15.1132 48.4138C14.8992 48.9234 14.5537 45.5114 14.5537 46.0837C14.5537 46.1285 14.638 24.8863 14.6586 28.8563C14.901 28.5039 15.3586 49.2789 15.699 49.0433C19.5788 46.3572 23.3671 43.0471 26.4348 39.4614C28.0679 37.5527 29.347 35.4179 30.7974 33.3766C32.2646 31.3117 33.8111 29.3117 35.1687 27.1694C36.5716 24.9557 37.846 22.657 39.2952 20.4726C40.6874 18.374 42.4079 16.4593 43.9812 14.4927C45.3392 12.7951 46.7573 11.1101 48.265 9.54441C48.5702 9.22749 49.2461 8.82438 49.454 8.47782C50.3413 6.99895 48.2013 11.6923 47.5219 13.2775C46.2647 16.2109 45.3467 19.2383 44.2959 22.2474C43.1768 25.4522 41.7951 28.5154 40.0645 31.4358C39.0617 33.1279 38.0745 35.0627 37.4505 36.9349C36.8907 38.6142 36.5114 40.3183 35.8331 41.9618C35.5065 42.7531 35.1152 43.2308 35.8331 43.7278C36.2941 44.047 36.4535 44.1111 36.7773 43.553C37.9858 41.4703 39.2984 39.4979 40.6765 37.5206C44.0435 32.6897 47.5399 27.9297 51.185 23.3052C52.3215 21.8634 53.3032 20.2582 54.5247 18.8902C55.5611 17.7294 56.7424 16.7016 57.8906 15.6555C59.5722 14.1233 61.0179 12.4175 62.0083 10.3575C62.5541 9.22222 63.1601 8.11455 63.8792 7.07901C64.1385 6.70562 64.6275 7.783 65.1294 7.67146C65.2837 7.63718 65.2218 7.41837 65.2168 7.55111C65.1508 9.33325 64.557 10.943 63.7131 12.4994C62.6654 14.4318 61.3457 16.1898 60.2248 18.0772C58.7764 20.5159 57.4496 23.0337 56.0634 25.5083C54.5471 28.2151 52.8596 30.8048 51.6921 33.6914C50.7474 36.0272 49.8727 38.3796 48.8945 40.7029C48.3703 41.9477 47.2859 43.3442 47.2859 44.742C47.2859 45.3874 47.6063 47.6591 46.9711 47.9767" stroke="#FF7E36" stroke-width="13" stroke-linecap="round"/>
<path d="M48.8594 48.4492C49.0106 47.6175 50.1947 46.7778 50.7827 46.281C52.2742 45.021 53.9164 43.9413 55.4338 42.714C57.4797 41.0592 59.0843 39.0485 60.6618 36.9614C62.4056 34.6544 64.288 32.4551 65.9773 30.1073C67.3201 28.2411 68.1336 26.2772 69.0372 24.1798C69.9723 22.0095 71.0987 19.9293 72.3419 17.9202C73.7182 15.6958 75.3287 13.538 77.0279 11.5556C77.4701 11.0397 78.3439 9.70362 78.2781 11.1184C78.1889 13.0359 77.4038 14.8876 76.7132 16.6525C75.7677 19.0688 74.7863 21.4682 73.8806 23.9001C72.3541 27.9985 70.1687 31.8641 68.2504 35.7899C67.7005 36.9153 67.6547 38.0742 67.2712 39.252C66.8816 40.4487 66.0123 41.8944 66.0123 43.1774C66.0123 43.6188 65.8793 44.9791 65.8899 44.9521C66.2964 43.9172 67.1471 42.936 67.7783 42.0321C68.7237 40.6781 69.838 39.4859 70.8906 38.2204C71.9819 36.9084 72.9055 35.4675 73.9155 34.0939C75.5799 31.8303 77.3405 29.6427 78.995 27.3709C81.6622 23.7084 84.5284 20.1976 87.2567 16.5825C89.0634 14.1886 90.7429 11.7404 92.6946 9.45736C93.0366 9.05721 93.4252 8.63282 93.6737 8.16346C93.7144 8.08662 93.7107 9.37442 93.7087 9.61472C93.6609 15.252 90.923 20.0805 88.603 25.0628C86.6051 29.3535 84.7855 33.7533 82.6319 37.9668C82.0029 39.1975 81.6368 40.4346 81.1194 41.6912C80.5508 43.0721 79.9664 44.4211 79.1611 45.6865C78.8492 46.1766 79.8121 45.6366 79.8955 45.5904C81.9644 44.4409 83.4741 42.5174 84.9312 40.7033C86.6087 38.6146 88.0385 36.3582 89.7396 34.2862C91.0641 32.6729 92.3769 31.0015 93.5164 29.2505C95.1073 26.8059 96.5706 24.3419 98.3423 22.0204C99.7091 20.2294 101.088 18.3671 102.355 16.5039C103.6 14.6726 105.146 13.1961 106.49 11.4681C106.906 10.9332 107.379 10.3346 107.837 9.85951C108.348 9.32927 109.113 8.18514 108.58 9.66718C107.746 11.9831 106.757 14.2237 105.669 16.4339C104.196 19.4253 103.473 22.4978 103.116 25.7885C102.816 28.5501 101.754 30.9876 100.72 33.5344C99.6523 36.1646 98.4957 38.8232 97.5729 41.5076C97.3201 42.243 97.0134 42.7885 97.0134 43.5708C97.0134 44.1793 96.9744 45.2863 96.2266 44.9871" stroke="#FF7E36" stroke-width="13" stroke-linecap="round"/>
<path d="M96.8555 46.8752C96.8555 45.9464 97.7637 44.8311 98.2193 44.0951C100.221 40.861 102.794 38.1967 105.117 35.2127C108.428 30.9608 110.874 26.1974 113.851 21.7316C114.854 20.2275 115.618 18.7463 116.386 17.1243C117.145 15.5221 118.199 13.6253 119.586 12.4907C120.14 12.0376 120.53 11.2409 121.055 10.716C121.286 10.485 121.557 10.2665 121.719 9.98163C121.886 9.68936 121.877 11.1651 121.877 11.2231C121.83 16.2958 121.003 21.6494 119.201 26.4002C118.184 29.0828 117.412 31.8013 116.517 34.5307C115.603 37.3185 113.984 39.7519 112.942 42.469C112.34 44.0374 112.031 45.6086 111.727 47.2512C111.661 47.605 111.491 47.9945 111.491 48.3527C111.491 48.4044 111.573 48.149 111.587 48.1254C111.791 47.7615 112.155 47.4544 112.47 47.19C113.444 46.3701 114.621 45.792 115.661 45.0568C116.824 44.2336 121.838 45.1018 122.729 43.9969C123.971 42.4578 120.879 38.6021 122.183 37.136C122.739 36.5103 123.313 35.9491 123.844 35.3001C124.478 34.5248 125.217 33.5859 125.653 32.7123" stroke="#FF7E36" stroke-width="13" stroke-linecap="round"/>
<path d="M7 29.7231C8.42868 28.4373 9.07527 26.5178 10.6194 25.3168C11.2758 24.8063 11.8441 24.3928 12.3854 23.7432C13.0736 22.9174 13.4962 21.9712 14.1164 21.1029C15.6678 18.9311 17.5941 17.1899 18.8025 14.7733C19.5379 13.3023 20.3076 12.3292 21.399 11.1539C21.6444 10.8895 23.0845 9.37131 22.6667 9.58022C21.2309 10.2981 19.9566 11.2862 18.5664 12.0806C16.9927 12.9798 15.1777 13.3577 13.5482 14.1526C11.5981 15.1038 10.7656 17.2351 9.04576 18.3927C8.89864 18.4917 8.20274 18.8537 8.22396 18.8298C8.44827 18.5775 8.52465 18.1958 8.73103 17.9206" stroke="#FF7E36" stroke-width="13" stroke-linecap="round"/>
<rect x="2" y="4" width="128" height="48" rx="8" stroke="#171717" stroke-width="3"/>
<path d="M3.26367 9.92137C4.0423 8.93749 4.88999 8.12907 5.63953 7.06356C6.32061 6.09536 7.77765 6.2674 8.65165 5.89926C9.98796 5.33641 11.3778 5.41815 12.7671 5.41815C14.8912 5.41815 16.8616 4.03255 18.9538 4.03255C20.0925 4.03255 21.268 3.90086 22.3924 4.16726C23.3973 4.40536 24.3606 5.04389 25.3706 5.23533C27.1105 5.56511 28.9302 5.41815 30.7045 5.41815C32.787 5.41815 34.8695 5.41815 36.9521 5.41815C37.8027 5.41815 38.6533 5.41815 39.5039 5.41815" stroke="#171717" stroke-width="2" stroke-linecap="round"/>
<path d="M41.1553 5.40039C47.8835 5.40039 54.6117 5.40039 61.3399 5.40039C63.4275 5.40039 65.2984 5.62969 67.3506 6.09319C69.1945 6.50965 71.1441 6.26639 73.0093 6.26639C73.8898 6.26639 74.7525 6.43959 75.6424 6.43959C77.5873 6.43959 79.5322 6.43959 81.4771 6.43959C83.3535 6.43959 85.3948 6.65736 87.2103 5.91999" stroke="#171717" stroke-width="2" stroke-linecap="round"/>
<path d="M85 5.66169C88.9608 5.66169 92.9143 5.44113 96.8709 5.44113C98.437 5.44113 99.8174 6.04942 101.349 6.64197C101.976 6.88448 102.619 6.98507 103.255 6.98507C104.339 6.98507 105.422 7.10696 106.492 6.65422C107.725 6.13201 108.982 5.66169 110.238 5.66169C111.965 5.66169 113.709 6.23114 115.425 6.09056C116.439 6.00752 117.392 5 118.396 5C119.137 5 119.868 5.22056 120.607 5.22056C122.604 5.22056 128.595 5.44113 126.598 5.44113" stroke="#171717" stroke-width="2" stroke-linecap="round"/>
<path d="M123 51C121.489 51 119.977 51 118.466 51C116.189 51 113.684 50.5993 111.444 49.9267C110.599 49.6731 109.762 49.2586 108.901 49.1292C108.109 49.0103 107.262 49.1217 106.468 49.1217C102.443 49.1217 98.3054 48.7144 94.305 49.39C92.7469 49.6532 91.1968 50.1272 89.6383 50.4335C88.6244 50.6328 87.5409 50.381 86.5382 50.6273C85.4267 50.9004 84.115 50.8658 82.9858 50.8658C82.6725 50.8658 81.1453 50.6073 81 51" stroke="#171717" stroke-width="2" stroke-linecap="round"/>
<path d="M88 51C86.8694 51 85.7389 51 84.6083 51C83.5891 51 82.682 50.6335 81.6742 50.4691C78.9991 50.0329 76.2991 50 73.5854 50C70.6223 50 67.7054 50.3333 64.7427 50.3333C63.5605 50.3333 62.3776 50.5316 61.203 50.5556C60.202 50.576 56.9987 50 58 50" stroke="#171717" stroke-width="2" stroke-linecap="round"/>
<path d="M59 50C58.126 50 57.2521 50 56.3781 50C54.9169 50 53.4915 49.75 52.0398 49.75C49.2081 49.75 46.378 49.8049 43.5592 49.5C41.8026 49.31 40.0258 49 38.2614 49C36.3224 49 34.4407 49.312 32.5108 49.375C29.7127 49.4663 26.9618 50.4841 24.1585 50.6181C21.2983 50.7548 12.7132 51 15.5766 51" stroke="#171717" stroke-width="2" stroke-linecap="round"/>
<path d="M19.9553 52.0089C17.0925 52.0089 14.1959 51.8402 11.3995 51.0081C10.3748 50.7033 9.21002 50.4501 8.16404 50.4501C7.38443 50.4501 6.84329 49.94 6.18755 49.4493C5.09043 48.6285 3.69108 47.3321 3.62894 45.3887C3.53255 42.3745 2.53239 39.6755 2.53239 36.6325C2.53239 35.2429 2.28871 33.7791 2.28871 32.3025C2.28871 31.1509 2.16687 30.0064 2.16687 28.8385C2.16687 26.5801 2.13439 24.2045 2.04503 22.0452C1.94371 19.5965 2.04503 17.1262 2.04503 14.636C2.04503 13.657 2.10294 12.7236 2.38347 11.8263C2.46872 11.5536 2.19046 11.0518 2.5 11" stroke="#171717" stroke-width="2" stroke-linecap="round"/>
</svg>
