<svg width="165" height="55" viewBox="0 0 165 55" fill="none" xmlns="http://www.w3.org/2000/svg">
<path d="M6.99991 42.2809C6.99991 38.2785 6.72754 34.9371 8.53908 31.4328C9.49839 29.577 8.41109 24.8613 9.52992 23.0877C10.5491 21.4722 8.88018 18.0816 9.9694 16.5195C12.517 12.8658 17.4375 13.158 19.652 9.30261C20.9895 6.97395 18.0349 14.3956 17.2344 16.9445C14.9731 24.1451 13.312 31.4689 11.4272 38.7613C10.7785 41.2709 10.186 43.8297 9.88191 46.4032C9.77668 47.2937 9.83206 44.2083 9.83206 45.1032C9.83206 46.4768 9.80682 49.1748 9.84452 47.8621C9.95226 44.1107 16.9606 41.5634 18.0752 37.9899C19.1748 34.4647 14.2827 31.0049 16.3372 27.877C19.2685 23.4141 23.286 20.1029 26.8799 16.1972C28.1489 14.8181 29.1465 13.3088 29.8832 11.6048C30.2912 10.6612 30.3856 9.41778 31.0048 8.5794C31.4354 7.99622 30.7986 10 30.6434 10.7008C29.873 14.1781 28.6714 17.5573 27.827 21.0186C26.4264 26.7598 25.1023 32.5318 23.9638 38.3274C23.7229 39.5536 23.2909 40.92 23.2909 42.1724C23.2909 42.7417 22.7528 44.3196 23.1164 43.872C23.3731 43.556 23.5591 42.9652 23.7021 42.6305C24.7832 40.1006 25.77 37.534 26.8425 35.0006C29.5941 28.5011 32.5158 21.9029 36.0144 15.7392C37.2005 13.6496 38.569 11.5483 40.4509 9.96555C41.1386 9.38708 41.5709 8.73274 42.1332 8.04905C42.2522 7.90436 43.0976 6.84378 42.9806 7.49459C41.955 13.1984 39.9587 18.8706 38.3697 24.4418C37.0807 28.9614 36.3893 33.683 35.192 38.243C34.7152 40.0586 34.0579 42.2209 34.0579 44.1131C34.0579 45.2328 33.3797 46.5292 33.2105 47.6568C33.0088 49.0007 34.5549 48.5295 35.7713 45.6452C38.8404 38.3674 40.4692 34.2952 46.5696 28.9257C49.14 26.6633 51.4762 24.6546 52.8504 21.4525C53.8506 19.122 54.0021 16.4845 54.7945 14.0758C55.336 12.4297 55.1434 10.6169 55.1434 8.9169C55.1434 7.42971 55.3677 6.84867 55.3677 8.79636C55.3677 10.4204 55.4533 12.0703 55.3179 13.6901C55.132 15.9131 54.2963 18.0882 53.7975 20.2592C52.6046 25.4514 51.0109 30.5477 49.7599 35.7238C49.0817 38.5297 48.7966 41.4393 48.0775 44.2215C47.8563 45.0773 47.5726 46.1896 47.5167 47.0541C47.515 47.0814 47.5231 45.3079 47.5541 44.9327C47.7898 42.0837 49.0053 39.1251 50.4577 36.664C52.7761 32.7355 56.0278 29.3801 58.8446 25.7918C61.3576 22.5904 63.25 19.0402 63.9913 15.0642C64.2512 13.6701 64.5445 12.2415 64.5646 10.8213C64.5759 10.0202 64.5024 9.25541 64.739 8.48297C64.8745 8.04082 64.7889 8.05043 64.7889 8.5794C64.7889 9.78249 68.0025 10.9671 68.0132 12.1713C68.0558 16.9539 65.1609 21.7754 64.901 26.5511C64.5989 32.1027 58.1159 37.6003 58.1159 43.1608C58.1159 43.8072 64.0361 46.2153 63.5551 46.6805C62.8456 47.3667 63.7065 44.7303 63.9913 43.7997C64.6857 41.5307 66.0771 39.4207 67.4806 37.5078C68.6552 35.9069 70.0012 34.4338 71.1693 32.831C72.6396 30.8136 73.375 28.6749 74.0979 26.3342C75.3472 22.2889 76.4459 18.1648 78.6963 14.5097C79.4859 13.2273 80.3384 12.0386 80.8896 10.6526C81.6151 8.82812 81.4153 11.3014 81.2385 12.0629C80.6997 14.3845 79.3877 16.516 78.5219 18.7284C77.0375 22.5216 75.7106 26.4086 74.7085 30.348C73.4704 35.2153 72.8642 40.4655 72.8642 45.4872C72.8642 46.3681 72.8991 45.2105 72.9639 44.9568C73.5894 42.5063 78.0604 44.0567 79.1541 41.785C82.2885 35.2743 83.0506 25.0759 86.8962 18.9454C88.1545 16.9395 89.2256 14.8913 90.3606 12.8222C90.9738 11.7045 91.4761 10.5232 92.1427 9.4352C92.3221 9.14227 92.5225 8.235 92.7159 8.79636C93.2072 10.2219 92.8351 12.2729 92.8281 13.7383C92.8097 17.5494 92.3398 21.1853 91.5943 24.9239C90.3448 31.1906 88.5713 37.2949 86.8214 43.4381C86.6424 44.0665 86.5424 44.8496 86.2108 45.4269C85.9015 45.9654 86.3198 44.1802 86.3604 44.0648C87.2599 41.509 88.5232 39.0487 89.5631 36.5435C91.6985 31.3989 93.9697 26.3681 96.4171 21.3561C98.9556 16.1575 101.036 12.2527 104.443 7.49371C104.486 7.43254 104.859 8.73856 104.929 9.108C105.178 10.4367 104.711 8.35448 104.467 9.65216C103.068 17.098 98.8845 23.9223 98.8845 31.5413C98.8845 33.6116 100.168 35.4678 100.554 37.4957C100.846 39.0252 100.805 40.7755 100.405 42.2809C100.202 43.0442 100.006 43.8793 100.006 44.6675C100.006 45.6846 99.9133 46.2536 98.8845 45.9693" stroke="#FF7E36" stroke-width="13" stroke-linecap="round"/>
<path d="M102.008 46.7953C102.008 45.5412 103.969 44.2802 104.058 43.0283C104.293 39.7007 103.964 36.7281 105.611 33.8175C107.553 30.3867 109.628 27.0103 111.692 23.6421C113.221 21.1457 110.922 18.783 112.371 16.2459C113.371 14.4955 117.457 12.6698 118.786 11.0433C118.878 10.9298 119.294 10.3931 119.336 10.6643C119.646 12.6541 119.39 14.9282 119.324 16.9235C118.99 27.0352 116.527 37.0691 115.695 47.1628C115.67 47.4705 115.351 49.1004 115.57 47.4721C116.187 42.8901 119.807 39.2883 121.625 35.0464C124.105 29.2589 125.593 20.258 129.008 14.8653C130.151 13.0587 131.817 13.4518 134.112 12.6856C134.367 12.6006 135.495 12.2512 135.739 12.5249C136.339 13.1979 135.359 16.3566 135.238 17.0498C134.449 21.5777 132.404 30.5167 131.623 35.0464C131.101 38.0736 128.868 43.1022 128.434 46.1308C128.418 46.2395 131.33 41.2511 131.685 40.6854C134.511 36.1884 137.349 51.6946 140.393 47.3172C143.805 42.4109 140.453 17.6748 144.403 13.1221C144.782 12.6855 153.935 9.72191 154.831 10.0212C156.081 10.4383 156.081 13.0968 156.158 13.9949C156.503 18.072 155.939 22.1338 154.919 26.0998C153.999 29.6752 152.859 33.2134 151.678 36.7232C151.05 38.5917 150.325 40.463 150.027 42.4081C149.97 42.7776 150.715 47.0197 151.352 46.3039C155.227 41.9486 154.453 36.0545 158 31.4763" stroke="#FF7E36" stroke-width="13" stroke-linecap="round"/>
<rect x="3" y="4" width="159" height="48" rx="8" stroke="#171717" stroke-width="3"/>
<path d="M4.26367 9.92137C5.0423 8.93749 5.88999 8.12907 6.63953 7.06356C7.32061 6.09536 8.77765 6.2674 9.65165 5.89926C10.988 5.33641 12.3778 5.41815 13.7671 5.41815C15.8912 5.41815 17.8616 4.03255 19.9538 4.03255C21.0925 4.03255 22.268 3.90086 23.3924 4.16726C24.3973 4.40536 25.3606 5.04389 26.3706 5.23533C28.1105 5.56511 29.9302 5.41815 31.7045 5.41815C33.787 5.41815 35.8695 5.41815 37.9521 5.41815C38.8027 5.41815 39.6533 5.41815 40.5039 5.41815" stroke="#171717" stroke-width="2" stroke-linecap="round"/>
<path d="M42.1553 5.40039C48.8835 5.40039 55.6117 5.40039 62.3399 5.40039C64.4275 5.40039 66.2984 5.62969 68.3506 6.09319C70.1945 6.50965 72.1441 6.26639 74.0093 6.26639C74.8898 6.26639 75.7525 6.43959 76.6424 6.43959C78.5873 6.43959 80.5322 6.43959 82.4771 6.43959C84.3535 6.43959 86.3948 6.65736 88.2103 5.91999" stroke="#171717" stroke-width="2" stroke-linecap="round"/>
<path d="M87.1133 5.91999C91.9509 5.91999 96.7796 5.74679 101.612 5.74679C103.525 5.74679 105.211 6.22446 107.081 6.68977C107.847 6.8802 108.633 6.9592 109.41 6.9592C110.734 6.9592 112.057 7.05492 113.363 6.6994C114.869 6.28932 116.404 5.91999 117.938 5.91999C120.048 5.91999 122.177 6.36716 124.274 6.25677C125.513 6.19156 126.676 5.40039 127.902 5.40039C128.808 5.40039 129.7 5.57359 130.603 5.57359C133.042 5.57359 140.359 5.74679 137.92 5.74679" stroke="#171717" stroke-width="2" stroke-linecap="round"/>
<path d="M137.677 6.45715C139.17 6.45715 140.664 6.45715 142.158 6.45715C143.068 6.45715 143.856 6.33957 144.743 6.02415C146.39 5.43899 147.904 5.07154 149.61 5.07154C150.83 5.07154 152.067 4.96597 153.272 5.28323C154.029 5.48253 154.736 5.97124 155.465 6.24546C156.292 6.55641 157.365 7.14995 158.213 7.14995C159.256 7.14995 160.195 8.05588 161.002 8.88196C162.472 10.3862 163.09 11.9679 162.654 14.5976C162.277 16.8649 162.288 19.0519 162.288 21.362C162.288 23.9996 161.679 26.5423 161.679 29.1464" stroke="#171717" stroke-width="2" stroke-linecap="round"/>
<path d="M161.679 29.1465C161.679 30.2306 161.679 31.3147 161.679 32.3988C161.679 33.5004 161.538 34.8254 161.706 35.9013C162.093 38.376 162.166 40.7365 162.166 43.272C162.166 44.2728 162.239 45.6109 161.984 46.5531C161.691 47.6347 161.16 48.1094 160.488 48.8914C158.786 50.8705 156.964 51.4894 154.795 51.4894C153.086 51.4894 151.328 51.277 149.61 51.1333C148.328 51.0261 147.057 50.6234 145.772 50.6234C144.505 50.6234 143.236 50.6524 141.968 50.6234C140.053 50.5794 138.158 50.1408 136.269 50.8928C134.932 51.4251 133.59 51.6626 132.201 51.6626C131.991 51.6626 130.788 51.6626 131.098 51.6626" stroke="#171717" stroke-width="2" stroke-linecap="round"/>
<path d="M133 51C131.165 51 129.329 51 127.494 51C124.729 51 121.687 50.5993 118.967 49.9267C117.942 49.6731 116.926 49.2586 115.879 49.1292C114.918 49.0103 113.89 49.1217 112.926 49.1217C108.037 49.1217 103.014 48.7144 98.156 49.39C96.264 49.6532 94.3818 50.1272 92.4894 50.4335C91.2582 50.6328 89.9425 50.381 88.725 50.6273C87.3753 50.9004 85.7825 50.8658 84.4113 50.8658C84.0309 50.8658 82.1764 50.6073 82 51" stroke="#171717" stroke-width="2" stroke-linecap="round"/>
<path d="M89 51C87.8694 51 86.7389 51 85.6083 51C84.5891 51 83.682 50.6335 82.6742 50.4691C79.9991 50.0329 77.2991 50 74.5854 50C71.6223 50 68.7054 50.3333 65.7427 50.3333C64.5605 50.3333 63.3776 50.5316 62.203 50.5556C61.202 50.576 57.9987 50 59 50" stroke="#171717" stroke-width="2" stroke-linecap="round"/>
<path d="M60 50C59.126 50 58.2521 50 57.3781 50C55.9169 50 54.4915 49.75 53.0398 49.75C50.2081 49.75 47.378 49.8049 44.5592 49.5C42.8026 49.31 41.0258 49 39.2614 49C37.3224 49 35.4407 49.312 33.5108 49.375C30.7127 49.4663 27.9618 50.4841 25.1585 50.6181C22.2983 50.7548 13.7132 51 16.5766 51" stroke="#171717" stroke-width="2" stroke-linecap="round"/>
<path d="M20.9553 52.0089C18.0925 52.0089 15.1959 51.8402 12.3995 51.0081C11.3748 50.7033 10.21 50.4501 9.16404 50.4501C8.38443 50.4501 7.84329 49.94 7.18755 49.4493C6.09043 48.6285 4.69108 47.3321 4.62894 45.3887C4.53255 42.3745 3.53239 39.6755 3.53239 36.6325C3.53239 35.2429 3.28871 33.7791 3.28871 32.3025C3.28871 31.1509 3.16687 30.0064 3.16687 28.8385C3.16687 26.5801 3.13439 24.2045 3.04503 22.0452C2.94371 19.5965 3.04503 17.1262 3.04503 14.636C3.04503 13.657 3.10294 12.7236 3.38347 11.8263C3.46872 11.5536 3.19046 11.0518 3.5 11" stroke="#171717" stroke-width="2" stroke-linecap="round"/>
</svg>
