<svg width="169" height="56" viewBox="0 0 169 56" fill="none" xmlns="http://www.w3.org/2000/svg">
<path d="M7.01934 39.2809C7.01934 35.2785 5.74065 34.9371 7.56119 31.4328C8.52527 29.577 8.43753 24.8613 9.56193 23.0878C10.5861 21.4722 8.90896 17.0816 10.0036 15.5195C12.5638 11.8658 17.5088 13.158 19.7343 9.30261C21.0785 6.97395 18.1091 14.3956 17.3047 16.9445C15.0322 24.1451 13.3628 28.4689 11.4686 35.7613C10.8167 38.2708 10.2213 40.8297 9.91566 43.4032C9.80992 44.2937 9.86557 45.2083 9.86557 46.1032C9.86557 47.4768 9.8402 47.1748 9.87809 45.8621C9.98636 42.1107 10.9997 38.5634 12.1198 34.9899C13.2249 31.4646 14.3383 31.0049 16.403 27.877C19.3489 23.4141 23.3864 20.1029 26.9981 16.1972C28.2734 14.8181 29.2759 13.3088 30.0163 11.6048C30.4264 10.6612 30.5213 9.41778 31.1435 8.5794C31.5763 7.99622 30.9363 10 30.7803 10.7008C30.0061 14.1781 28.7985 17.5573 27.9499 21.0186C26.5424 26.7598 25.2117 32.5318 24.0675 38.3274C23.8255 39.5536 23.3912 40.92 23.3912 42.1724C23.3912 42.7417 22.8505 44.3196 23.2159 43.872C23.4739 43.556 23.6608 42.9652 23.8045 42.6305C24.891 40.1006 25.8827 37.534 26.9605 35.0006C29.7258 28.5011 32.662 21.9029 36.178 15.7392C37.37 13.6496 38.7453 11.5483 40.6365 9.96555C41.3277 9.38708 41.7621 8.73274 42.3272 8.04905C42.4468 7.90436 43.2964 6.84378 43.1788 7.49459C42.1482 13.1984 40.1419 18.8706 38.545 24.4418C37.2496 28.9614 36.5547 33.683 35.3515 38.243C34.8724 40.0586 34.2118 42.2209 34.2118 44.1131C34.2118 45.2328 33.5302 46.5292 33.3602 47.6568C33.1575 49.0007 32.7014 49.5295 33.9237 46.6452C37.0081 39.3674 40.6549 34.2952 46.7857 28.9257C49.3688 26.6633 51.7166 24.6546 53.0977 21.4525C54.1028 19.122 54.2551 16.4845 55.0514 14.0758C55.5956 12.4297 55.402 10.6169 55.402 8.9169C55.402 7.42971 55.6275 6.84867 55.6275 8.79636C55.6275 10.4204 55.7135 12.0703 55.5774 13.6901C55.3905 15.9131 54.5507 18.0882 54.0495 20.2592C52.8506 25.4514 51.249 30.5477 49.9918 35.7238C49.3103 38.5297 49.0238 41.4393 48.301 44.2215C48.0787 45.0773 47.7936 46.1896 47.7375 47.0541C47.7357 47.0814 47.7439 45.3079 47.775 44.9327C48.0119 42.0837 49.2335 39.1251 50.6931 36.664C53.0229 32.7355 56.2908 29.3801 59.1216 25.7918C61.6471 22.5904 63.5489 19.0402 64.2939 15.0642C64.5551 13.6701 64.8498 12.2415 64.87 10.8213C64.8814 10.0202 64.8075 9.25541 65.0453 8.48297C65.1815 8.04082 65.0954 8.05043 65.0954 8.5794C65.0954 9.78249 71.4968 11.9038 71.5076 13.108C71.5505 17.8906 65.4693 21.7754 65.2082 26.5511C64.9046 32.1027 64.4192 37.6003 64.4192 43.1608C64.4192 43.8072 64.3389 46.2152 63.8556 46.6804C63.1426 47.3667 58.8354 43.2115 59.1216 42.2809C59.8194 40.012 66.39 39.4207 67.8006 37.5077C68.981 35.9069 70.3337 34.4338 71.5076 32.831C72.9852 30.8136 73.7242 28.6749 74.4507 26.3342C75.7062 22.2889 76.8104 18.1648 79.072 14.5097C79.8655 13.2273 80.7223 12.0386 81.2762 10.6526C82.0053 8.82812 81.8044 11.3014 81.6268 12.0629C81.0853 14.3845 79.7668 16.516 78.8967 18.7284C77.4049 22.5216 76.0714 26.4086 75.0644 30.348C73.8201 35.2153 73.2109 40.4655 73.2109 45.4872C73.2109 46.3681 73.246 45.2105 73.311 44.9568C73.9397 42.5063 75.4181 40.0567 76.5171 37.785C79.6671 31.2743 83.4479 25.0759 87.3126 18.9454C88.5772 16.9395 89.6536 14.8913 90.7942 12.8222C91.4104 11.7045 91.9153 10.5232 92.5851 9.4352C92.7655 9.14227 92.9668 8.235 93.1612 8.79636C93.655 10.2219 93.281 12.2729 93.274 13.7383C93.2555 17.5494 92.7832 21.1853 92.0341 24.9239C90.7784 31.1906 88.996 37.2949 87.2375 43.4381C87.0576 44.0665 86.9571 44.8496 86.6238 45.4269C86.313 45.9654 86.7333 44.1802 86.7741 44.0648C87.6781 41.509 88.9477 39.0487 89.9927 36.5435C92.1388 31.3989 94.4212 26.3681 96.8808 21.3561C99.432 16.1575 101.523 14.2527 104.946 9.49371C104.99 9.43254 105.365 12.7386 105.435 13.108C105.686 14.4367 105.216 12.3545 104.971 13.6522C103.565 21.098 99.3605 23.9223 99.3605 31.5413C99.3605 33.6116 100.651 35.4678 101.039 37.4957C101.331 39.0252 105.837 40.7755 105.435 42.2809C105.231 43.0442 100.488 43.8793 100.488 44.6675C100.488 45.6846 100.394 46.2536 99.3605 45.9693" stroke="#DBDBDB" stroke-width="13" stroke-linecap="round"/>
<path d="M102.501 46.7953C102.501 45.5412 102.462 44.2802 102.551 43.0283C102.787 39.7007 104.466 36.7281 106.122 33.8175C108.073 30.3867 110.158 27.0103 112.233 23.6421C113.77 21.1457 112.593 15.6592 114.049 13.1221C115.054 11.3716 118.026 12.6698 119.362 11.0433C119.455 10.9298 119.873 10.3931 119.915 10.6643C120.226 12.6541 119.969 14.9282 119.902 16.9235C119.567 27.0352 123.93 36.7016 123.094 46.7953C123.069 47.103 115.91 50.1004 116.13 48.4721C116.75 43.8901 114.304 39.2883 116.13 35.0464C118.623 29.2589 126.203 23.258 129.634 17.8653C130.784 16.0587 132.458 11.4518 134.765 10.6856C135.021 10.6006 136.154 10.2512 136.399 10.5249C137.002 11.1979 136.018 14.3566 135.896 15.0498C146.208 13.1221 133.047 30.5167 132.262 35.0464C131.738 38.0736 131.504 41.1022 131.068 44.1308C131.052 44.2395 131.968 41.2511 132.325 40.6854C135.166 36.1884 138.017 52.6946 141.077 48.3172C144.505 43.4109 148.171 17.6748 152.141 13.1221C152.522 12.6855 154.685 9.72191 155.587 10.0212C156.842 10.4383 156.843 13.0968 156.919 13.9949C157.267 18.072 156.7 22.1338 155.675 26.0998C154.75 29.6752 153.604 33.2134 152.418 36.7232C151.787 38.5917 151.058 40.463 150.758 42.4081C150.701 42.7776 150.445 44.0197 151.085 43.3039C154.979 38.9486 158.221 34.0545 161.785 29.4763" stroke="#DBDBDB" stroke-width="13" stroke-linecap="round"/>
<rect x="3" y="4" width="159.79" height="48" rx="8" stroke="#171717" stroke-width="2" stroke-linecap="round" stroke-linejoin="round" stroke-dasharray="2 6"/>
</svg>
