<svg width="168" height="56" viewBox="0 0 168 56" fill="none" xmlns="http://www.w3.org/2000/svg">
<path d="M6.99961 39.2809C6.99961 35.2785 5.72724 34.9371 7.53878 31.4328C8.49809 29.577 8.41078 24.8613 9.52962 23.0878C10.5488 21.4722 8.87988 17.0816 9.9691 15.5195C12.5167 11.8658 17.4372 13.158 19.6517 9.30261C20.9892 6.97395 18.0346 14.3956 17.2341 16.9445C14.9728 24.1451 13.3117 28.4689 11.4269 35.7613C10.7782 38.2708 10.1857 40.8297 9.88161 43.4032C9.77638 44.2937 9.83176 45.2083 9.83176 46.1032C9.83176 47.4768 9.80652 47.1748 9.84422 45.8621C9.95196 42.1107 10.9603 38.5634 12.0749 34.9899C13.1745 31.4646 14.2824 31.0049 16.3369 27.877C19.2682 23.4141 23.2857 20.1029 26.8796 16.1972C28.1486 14.8181 29.1462 13.3088 29.8829 11.6048C30.2909 10.6612 30.3853 9.41778 31.0045 8.5794C31.4351 7.99622 30.7983 10 30.6431 10.7008C29.8727 14.1781 28.6711 17.5573 27.8267 21.0186C26.4261 26.7598 25.102 32.5318 23.9635 38.3274C23.7226 39.5536 23.2906 40.92 23.2906 42.1724C23.2906 42.7417 22.7525 44.3196 23.1161 43.872C23.3728 43.556 23.5588 42.9652 23.7018 42.6305C24.7829 40.1006 25.7697 37.534 26.8422 35.0006C29.5938 28.5011 32.5155 21.9029 36.0141 15.7392C37.2002 13.6496 38.5687 11.5483 40.4506 9.96555C41.1383 9.38708 41.5706 8.73274 42.1329 8.04905C42.2519 7.90436 43.0973 6.84378 42.9803 7.49459C41.9547 13.1984 39.9584 18.8706 38.3694 24.4418C37.0804 28.9614 36.389 33.683 35.1917 38.243C34.7149 40.0586 34.0576 42.2209 34.0576 44.1131C34.0576 45.2328 33.3794 46.5292 33.2102 47.6568C33.0085 49.0007 32.5546 49.5295 33.771 46.6452C36.8401 39.3674 40.4688 34.2952 46.5693 28.9257C49.1397 26.6633 51.4759 24.6546 52.8501 21.4525C53.8503 19.122 54.0018 16.4845 54.7942 14.0758C55.3357 12.4297 55.1431 10.6169 55.1431 8.9169C55.1431 7.42971 55.3674 6.84867 55.3674 8.79636C55.3674 10.4204 55.453 12.0703 55.3176 13.6901C55.1317 15.9131 54.296 18.0882 53.7972 20.2592C52.6043 25.4514 51.0106 30.5477 49.7596 35.7238C49.0814 38.5297 48.7963 41.4393 48.0772 44.2215C47.856 45.0773 47.5723 46.1896 47.5164 47.0541C47.5147 47.0814 47.5228 45.3079 47.5538 44.9327C47.7895 42.0837 49.005 39.1251 50.4574 36.664C52.7758 32.7355 56.0275 29.3801 58.8443 25.7918C61.3573 22.5904 63.2497 19.0402 63.991 15.0642C64.2509 13.6701 64.5441 12.2415 64.5643 10.8213C64.5756 10.0202 64.5021 9.25541 64.7387 8.48297C64.8742 8.04082 64.7886 8.05043 64.7886 8.5794C64.7886 9.78249 71.1583 11.9038 71.1691 13.108C71.2117 17.8906 65.1606 21.7754 64.9007 26.5511C64.5986 32.1027 64.1156 37.6003 64.1156 43.1608C64.1156 43.8072 64.0358 46.2152 63.5548 46.6804C62.8453 47.3667 58.5595 43.2115 58.8443 42.2809C59.5386 40.012 66.0768 39.4207 67.4803 37.5077C68.6549 35.9069 70.0009 34.4338 71.1691 32.831C72.6393 30.8136 73.3747 28.6749 74.0976 26.3342C75.3469 22.2889 76.4456 18.1648 78.696 14.5097C79.4856 13.2273 80.3381 12.0386 80.8893 10.6526C81.6148 8.82812 81.415 11.3014 81.2382 12.0629C80.6994 14.3845 79.3874 16.516 78.5216 18.7284C77.0372 22.5216 75.7103 26.4086 74.7082 30.348C73.4701 35.2153 72.8639 40.4655 72.8639 45.4872C72.8639 46.3681 72.8988 45.2105 72.9636 44.9568C73.5891 42.5063 75.0601 40.0567 76.1538 37.785C79.2882 31.2743 83.0503 25.0759 86.8959 18.9454C88.1542 16.9395 89.2253 14.8913 90.3603 12.8222C90.9735 11.7045 91.4758 10.5232 92.1424 9.4352C92.3218 9.14227 92.5222 8.235 92.7156 8.79636C93.2069 10.2219 92.8348 12.2729 92.8278 13.7383C92.8094 17.5494 92.3395 21.1853 91.594 24.9239C90.3445 31.1906 88.571 37.2949 86.8212 43.4381C86.6421 44.0665 86.5421 44.8496 86.2105 45.4269C85.9012 45.9654 86.3195 44.1802 86.3601 44.0648C87.2596 41.509 88.5229 39.0487 89.5628 36.5435C91.6982 31.3989 93.9694 26.3681 96.4168 21.3561C98.9553 16.1575 101.036 14.2527 104.442 9.49371C104.486 9.43254 104.859 12.7386 104.928 13.108C105.178 14.4367 104.711 12.3545 104.467 13.6522C103.067 21.098 98.8842 23.9223 98.8842 31.5413C98.8842 33.6116 100.168 35.4678 100.554 37.4957C100.845 39.0252 105.328 40.7755 104.928 42.2809C104.725 43.0442 100.006 43.8793 100.006 44.6675C100.006 45.6846 99.913 46.2536 98.8842 45.9693" stroke="#DBDBDB" stroke-width="13" stroke-linecap="round"/>
<path d="M102.008 46.7953C102.008 45.5412 101.97 44.2802 102.058 43.0283C102.293 39.7007 103.964 36.7281 105.612 33.8175C107.554 30.3867 109.628 27.0103 111.692 23.6421C113.222 21.1457 112.051 15.6592 113.5 13.1221C114.5 11.3716 117.457 12.6698 118.786 11.0433C118.879 10.9298 119.295 10.3931 119.337 10.6643C119.646 12.6541 119.39 14.9282 119.324 16.9235C118.99 27.0352 123.332 36.7016 122.5 46.7953C122.475 47.103 115.352 50.1004 115.571 48.4721C116.188 43.8901 113.753 39.2883 115.571 35.0464C118.051 29.2589 125.594 23.258 129.008 17.8653C130.152 16.0587 131.818 11.4518 134.113 10.6856C134.368 10.6006 135.495 10.2512 135.739 10.5249C136.339 11.1979 135.36 14.3566 135.239 15.0498C145.5 13.1221 132.404 30.5167 131.623 35.0464C131.101 38.0736 130.869 41.1022 130.434 44.1308C130.419 44.2395 131.33 41.2511 131.686 40.6854C134.512 36.1884 137.349 52.6946 140.394 48.3172C143.806 43.4109 147.453 17.6748 151.404 13.1221C151.783 12.6855 153.935 9.72191 154.832 10.0212C156.082 10.4383 156.082 13.0968 156.158 13.9949C156.504 18.072 155.94 22.1338 154.919 26.0998C154 29.6752 152.859 33.2134 151.679 36.7232C151.051 38.5917 150.325 40.463 150.027 42.4081C149.971 42.7776 149.716 44.0197 150.353 43.3039C154.228 38.9486 157.453 34.0545 161 29.4763" stroke="#DBDBDB" stroke-width="13" stroke-linecap="round"/>
<rect x="3" y="4" width="159" height="48" rx="8" stroke="#171717" stroke-width="2" stroke-linecap="round" stroke-linejoin="round" stroke-dasharray="2 6"/>
</svg>
