<svg width="166" height="54" viewBox="0 0 166 54" fill="none" xmlns="http://www.w3.org/2000/svg">
<path d="M7.99958 39.2807C7.99958 35.2783 5.72722 33.9369 7.53875 30.4326C8.49807 28.5768 8.41076 23.8611 9.5296 22.0875C10.5487 20.472 9.87985 17.0814 10.9691 15.5193C13.5166 11.8656 17.4372 12.1578 19.6517 8.30238C20.9892 5.97372 18.0345 13.3954 17.2341 15.9443C14.9728 23.1448 13.3117 30.4687 11.4269 37.7611C10.7782 40.2706 10.1857 42.8294 9.88158 45.403C9.77636 46.2935 9.83173 45.2081 9.83173 46.103C9.83173 47.4766 9.8065 45.1746 9.8442 43.8619C9.95193 40.1105 10.9602 40.5631 12.0749 36.9897C13.1744 33.4644 14.2823 30.0047 16.3368 26.8768C19.2681 22.4139 23.2857 19.1027 26.8796 15.197C28.1486 13.8179 29.1461 12.3086 29.8829 10.6046C30.2909 9.66093 30.3853 8.41755 31.0044 7.57917C31.4351 6.99599 30.7983 8.99982 30.643 9.70058C29.8727 13.1779 28.671 16.5571 27.8267 20.0184C26.4261 25.7596 25.102 31.5316 23.9635 37.3272C23.7226 38.5534 23.2905 39.9198 23.2905 41.1722C23.2905 41.7415 21.7524 43.3194 22.1161 42.8718C22.3728 42.5558 23.5588 41.9649 23.7018 41.6303C24.7829 39.1004 25.7697 36.5338 26.8422 34.0004C29.5938 27.5008 32.5154 20.9027 36.0141 14.7389C37.2002 12.6493 38.5687 10.5481 40.4505 8.96532C41.1383 8.38685 41.5706 7.73251 42.1329 7.04882C42.2519 6.90414 43.0973 7.84355 42.9803 8.49436C41.9547 14.1982 39.9584 17.8704 38.3694 23.4416C37.0804 27.9612 36.389 32.6828 35.1916 37.2428C34.7149 39.0584 34.0576 41.2207 34.0576 43.1128C34.0576 44.2326 33.3794 42.529 33.2102 43.6566C33.0085 45.0005 32.5546 47.5292 33.771 44.6449C36.8401 37.3672 40.4688 33.295 46.5693 27.9254C49.1397 25.663 51.4759 23.6543 52.8501 20.4523C53.8503 18.1217 54.0018 15.4843 54.7941 13.0756C55.3356 11.4295 55.1431 9.61663 55.1431 7.91667C55.1431 6.42948 55.3674 7.84844 55.3674 9.79613C55.3674 11.4202 55.453 11.0701 55.3175 12.6898C55.1316 14.9129 54.296 17.0879 53.7972 19.259C52.6043 24.4512 51.0105 29.5475 49.7595 34.7236C49.0814 37.5294 51.7963 40.4391 51.0772 43.2213C50.856 44.0771 47.5723 45.1893 47.5164 46.0539C47.5146 46.0812 44.5228 44.3077 44.5538 43.9325C44.7894 41.0835 57.005 38.1249 58.4574 35.6638C60.7757 31.7353 56.0275 28.3798 58.8442 24.7915C61.3572 21.5902 63.2497 18.04 63.991 14.0639C64.2509 12.6698 64.5441 11.2413 64.5642 9.82112C64.5756 9.01993 64.5021 8.25518 64.7387 7.48274C64.8741 7.0406 64.7885 7.0502 64.7885 7.57917C64.7885 8.78227 68.0021 9.9669 68.0129 11.1711C68.0555 15.9537 65.1606 20.7751 64.9007 25.5509C64.5986 31.1025 64.1156 36.6001 64.1156 42.1606C64.1156 42.8069 64.0358 45.215 63.5548 45.6802C62.8453 46.3665 63.7062 43.73 63.991 42.7994C64.6854 40.5305 66.0768 38.4205 67.4803 36.5075C68.6549 34.9067 70.0009 33.4336 71.169 31.8308C72.6393 29.8134 73.3747 27.6747 74.0976 25.3339C75.3468 21.2887 76.4456 17.1646 78.696 13.5095C79.4856 12.227 79.3381 11.0384 79.8893 9.65237C80.6148 7.8279 81.4149 10.3012 81.2382 11.0626C80.6994 13.3842 79.3873 15.5157 78.5215 17.7282C77.0371 21.5214 75.7103 25.4083 74.7082 29.3478C73.4701 34.2151 72.8638 39.4653 72.8638 44.4869C72.8638 45.3678 72.8988 44.2103 72.9635 43.9566C73.5891 41.506 75.0601 39.0564 76.1538 36.7848C79.2882 30.2741 83.0502 24.0757 86.8959 17.9452C88.1542 15.9393 89.2253 13.891 90.3603 11.822C90.9735 10.7043 91.4758 9.52293 92.1423 8.43497C92.3218 8.14204 92.5221 7.23477 92.7156 7.79613C93.2069 9.22172 92.8348 11.2726 92.8277 12.7381C92.8094 16.5492 92.3395 20.1851 91.594 23.9237C90.3445 30.1904 88.571 36.2947 86.8211 42.4378C86.6421 43.0663 86.5421 43.8493 86.2105 44.4267C85.9012 44.9652 86.3194 43.18 86.36 43.0646C87.2596 40.5088 88.5228 38.0485 89.5627 35.5432C91.6982 30.3987 93.9693 25.3679 96.4168 20.3559C98.9553 15.1573 101.036 12.2524 104.442 7.49348C104.486 7.43231 104.859 6.73834 104.928 7.10777C105.178 8.43643 105.711 7.35425 105.467 8.65193C104.067 16.0978 98.8842 22.9221 98.8842 30.541C98.8842 32.6114 100.168 34.4675 100.554 36.4955C100.845 38.0249 101.805 39.7752 101.405 41.2807C101.202 42.0439 100.006 42.8791 100.006 43.6673C100.006 44.6844 99.913 45.2534 98.8842 44.9691" stroke="#A736FF" stroke-width="13" stroke-linecap="round"/>
<path d="M102.008 45.7953C102.008 44.5412 101.97 43.2802 102.058 42.0283C102.293 38.7007 103.964 35.7281 105.612 32.8175C107.554 29.3867 109.628 26.0103 111.692 22.6421C113.222 20.1457 114.922 17.783 116.371 15.2459C117.371 13.4955 117.457 11.6698 118.786 10.0433C118.879 9.92978 119.295 9.39312 119.337 9.66433C119.646 11.6541 119.39 13.9282 119.324 15.9235C118.99 26.0352 114.528 36.0691 113.696 46.1628C113.671 46.4705 115.352 47.1004 115.571 45.4721C116.188 40.8901 118.808 38.2883 120.625 34.0464C123.106 28.2589 125.594 22.258 129.008 16.8653C130.152 15.0587 131.818 12.4518 134.113 11.6856C134.368 11.6006 135.495 11.2512 135.739 11.5249C136.339 12.1979 135.36 15.3566 135.239 16.0498C134.45 20.5777 132.404 29.5167 131.623 34.0464C131.101 37.0736 127.869 40.1022 127.434 43.1308C127.419 43.2395 131.33 40.2511 131.686 39.6854C134.512 35.1884 137.349 50.6946 140.394 46.3172C143.806 41.4109 142.453 16.6748 146.404 12.1221C146.783 11.6855 153.935 8.72191 154.832 9.02118C156.082 9.43832 156.082 12.0968 156.158 12.9949C156.504 17.072 155.94 21.1338 154.919 25.0998C154 28.6752 152.859 32.2134 151.679 35.7232C151.051 37.5917 150.325 39.463 150.027 41.4081C149.971 41.7776 149.716 45.0197 150.353 44.3039C154.228 39.9486 155.453 33.0545 159 28.4763" stroke="#A736FF" stroke-width="13" stroke-linecap="round"/>
<rect x="3" y="3" width="159" height="48" rx="8" stroke="#171717" stroke-width="3"/>
<path d="M4.26367 8.92137C5.0423 7.93749 5.88999 7.12907 6.63953 6.06356C7.32061 5.09536 8.77765 5.2674 9.65165 4.89926C10.988 4.33641 12.3778 4.41815 13.7671 4.41815C15.8912 4.41815 17.8616 3.03255 19.9538 3.03255C21.0925 3.03255 22.268 2.90086 23.3924 3.16726C24.3973 3.40536 25.3606 4.04389 26.3706 4.23533C28.1105 4.56511 29.9302 4.41815 31.7045 4.41815C33.787 4.41815 35.8695 4.41815 37.9521 4.41815C38.8027 4.41815 39.6533 4.41815 40.5039 4.41815" stroke="#171717" stroke-width="2" stroke-linecap="round"/>
<path d="M42.1553 4.40039C48.8835 4.40039 55.6117 4.40039 62.3399 4.40039C64.4275 4.40039 66.2984 4.62969 68.3506 5.09319C70.1945 5.50965 72.1441 5.26639 74.0093 5.26639C74.8898 5.26639 75.7525 5.43959 76.6424 5.43959C78.5873 5.43959 80.5322 5.43959 82.4771 5.43959C84.3535 5.43959 86.3948 5.65736 88.2103 4.91999" stroke="#171717" stroke-width="2" stroke-linecap="round"/>
<path d="M87.1133 4.91999C91.9509 4.91999 96.7796 4.74679 101.612 4.74679C103.525 4.74679 105.211 5.22446 107.081 5.68977C107.847 5.8802 108.633 5.9592 109.41 5.9592C110.734 5.9592 112.057 6.05492 113.363 5.6994C114.869 5.28932 116.404 4.91999 117.938 4.91999C120.048 4.91999 122.177 5.36716 124.274 5.25677C125.513 5.19156 126.676 4.40039 127.902 4.40039C128.808 4.40039 129.7 4.57359 130.603 4.57359C133.042 4.57359 140.359 4.74679 137.92 4.74679" stroke="#171717" stroke-width="2" stroke-linecap="round"/>
<path d="M137.677 5.45715C139.17 5.45715 140.664 5.45715 142.158 5.45715C143.068 5.45715 143.856 5.33957 144.743 5.02415C146.39 4.43899 147.904 4.07154 149.61 4.07154C150.83 4.07154 152.067 3.96597 153.272 4.28323C154.029 4.48253 154.736 4.97124 155.465 5.24546C156.292 5.55641 157.365 6.14995 158.213 6.14995C159.256 6.14995 160.195 7.05588 161.002 7.88196C162.472 9.38624 163.09 10.9679 162.654 13.5976C162.277 15.8649 162.288 18.0519 162.288 20.362C162.288 22.9996 161.679 25.5423 161.679 28.1464" stroke="#171717" stroke-width="2" stroke-linecap="round"/>
<path d="M161.679 28.1465C161.679 29.2306 161.679 30.3147 161.679 31.3988C161.679 32.5004 161.538 33.8254 161.706 34.9013C162.093 37.376 162.166 39.7365 162.166 42.272C162.166 43.2728 162.239 44.6109 161.984 45.5531C161.691 46.6347 161.16 47.1094 160.488 47.8914C158.786 49.8705 156.964 50.4894 154.795 50.4894C153.086 50.4894 151.328 50.277 149.61 50.1333C148.328 50.0261 147.057 49.6234 145.772 49.6234C144.505 49.6234 143.236 49.6524 141.968 49.6234C140.053 49.5794 138.158 49.1408 136.269 49.8928C134.932 50.4251 133.59 50.6626 132.201 50.6626C131.991 50.6626 130.788 50.6626 131.098 50.6626" stroke="#171717" stroke-width="2" stroke-linecap="round"/>
<path d="M133 50C131.165 50 129.329 50 127.494 50C124.729 50 121.687 49.5993 118.967 48.9267C117.942 48.6731 116.926 48.2586 115.879 48.1292C114.918 48.0103 113.89 48.1217 112.926 48.1217C108.037 48.1217 103.014 47.7144 98.156 48.39C96.264 48.6532 94.3818 49.1272 92.4894 49.4335C91.2582 49.6328 89.9425 49.381 88.725 49.6273C87.3753 49.9004 85.7825 49.8658 84.4113 49.8658C84.0309 49.8658 82.1764 49.6073 82 50" stroke="#171717" stroke-width="2" stroke-linecap="round"/>
<path d="M89 50C87.8694 50 86.7389 50 85.6083 50C84.5891 50 83.682 49.6335 82.6742 49.4691C79.9991 49.0329 77.2991 49 74.5854 49C71.6223 49 68.7054 49.3333 65.7427 49.3333C64.5605 49.3333 63.3776 49.5316 62.203 49.5556C61.202 49.576 57.9987 49 59 49" stroke="#171717" stroke-width="2" stroke-linecap="round"/>
<path d="M60 49C59.126 49 58.2521 49 57.3781 49C55.9169 49 54.4915 48.75 53.0398 48.75C50.2081 48.75 47.378 48.8049 44.5592 48.5C42.8026 48.31 41.0258 48 39.2614 48C37.3224 48 35.4407 48.312 33.5108 48.375C30.7127 48.4663 27.9618 49.4841 25.1585 49.6181C22.2983 49.7548 13.7132 50 16.5766 50" stroke="#171717" stroke-width="2" stroke-linecap="round"/>
<path d="M20.9553 51.0089C18.0925 51.0089 15.1959 50.8402 12.3995 50.0081C11.3748 49.7033 10.21 49.4501 9.16404 49.4501C8.38443 49.4501 7.84329 48.94 7.18755 48.4493C6.09043 47.6285 4.69108 46.3321 4.62894 44.3887C4.53255 41.3745 3.53239 38.6755 3.53239 35.6325C3.53239 34.2429 3.28871 32.7791 3.28871 31.3025C3.28871 30.1509 3.16687 29.0064 3.16687 27.8385C3.16687 25.5801 3.13439 23.2045 3.04503 21.0452C2.94371 18.5965 3.04503 16.1262 3.04503 13.636C3.04503 12.657 3.10294 11.7236 3.38347 10.8263C3.46872 10.5536 3.19046 10.0518 3.5 10" stroke="#171717" stroke-width="2" stroke-linecap="round"/>
</svg>
