<svg width="113" height="53" viewBox="0 0 113 53" fill="none" xmlns="http://www.w3.org/2000/svg">
<path d="M7 40.6238C7 36.7993 8.72763 33.6064 10.5392 30.2578C11.4985 28.4845 8.41118 23.9784 9.53002 22.2836C10.5492 20.7399 10.8803 15.4111 11.9695 13.9184C14.5171 10.4271 17.4376 12.7952 19.6521 9.11116C20.9896 5.886 18.035 13.9778 17.2345 16.4134C14.9732 23.294 13.3121 30.2923 11.4273 37.2606C10.7786 39.6586 10.1861 40.1037 9.882 42.5629C9.77678 43.4138 9.83215 44.2877 9.83215 45.1428C9.83215 46.4554 9.80691 46.1668 9.84461 44.9125C9.95235 41.3278 10.9607 39.9381 12.0753 36.5235C13.1749 33.1549 14.2828 29.849 16.3372 26.86C19.2686 22.5955 23.2861 19.4315 26.88 15.6993C28.149 14.3815 29.1466 12.9393 29.8833 11.3111C30.2913 10.4093 30.3857 9.22122 31.0049 8.4201C31.4355 7.86284 30.7987 9.77761 30.6435 10.4472C29.8731 13.77 28.6715 16.999 27.8271 20.3064C26.4265 25.7925 25.1024 31.308 23.9639 36.846C23.723 38.0177 23.291 39.3234 23.291 40.5201C23.291 41.0641 22.7529 43.5719 23.1165 43.1441C23.3732 42.8422 23.5592 41.2776 23.7022 40.9578C24.7833 38.5403 25.7701 36.0878 26.8426 33.667C29.5942 27.4563 32.5159 21.1514 36.0145 15.2617C37.2006 13.2649 38.5691 11.2571 40.4509 9.74464C41.1387 9.19188 41.571 8.56662 42.1333 7.91332C42.2523 7.77506 43.0977 6.76162 42.9807 7.3835C41.9551 12.8338 39.9588 18.2539 38.3698 23.5775C37.0808 27.8962 36.3894 32.408 35.192 36.7653C34.7153 38.5003 34.058 40.5665 34.058 42.3745C34.058 43.4444 33.3798 42.6832 33.2106 43.7607C33.0089 45.0449 32.555 47.4613 33.7714 44.7052C36.8405 37.7509 40.4692 32.993 46.5697 27.8621C49.1401 25.7002 51.4763 23.7808 52.8505 20.7211C53.8507 18.4941 54.0022 15.9739 54.7946 13.6722C55.336 12.0993 55.1435 10.367 55.1435 8.74259C55.1435 7.3215 55.3678 6.76629 55.3678 8.62742C55.3678 10.1793 55.4534 11.7559 55.318 13.3036C55.1321 15.4279 54.2964 17.5062 53.7976 19.5808C52.6047 24.5422 51.011 29.4121 49.76 34.3581C49.0818 37.0392 51.7967 39.8195 51.0776 42.4781C50.8564 43.2959 47.5727 44.3587 47.5168 45.1848C47.5151 45.2109 47.5232 43.5162 47.5542 43.1577C47.7899 40.4353 54.0054 37.6082 55.4578 35.2565C57.7762 31.5026 56.0279 28.2963 58.8447 24.8675C61.3577 21.8084 63.2501 18.416 63.9914 14.6167C64.2513 13.2845 64.5445 11.9194 64.5647 10.5624C64.576 9.79682 64.5025 13.0661 64.7391 12.328C64.8746 11.9055 64.789 11.9146 64.789 12.4201C64.789 13.5697 65.0025 10.7017 65.0133 11.8524C65.0559 16.4224 65.161 21.0296 64.9011 25.5931C64.599 30.8979 64.116 36.1512 64.116 41.4646C64.116 42.0822 64.0362 44.3832 63.5552 44.8278C62.8457 45.4835 63.7066 42.9643 63.9914 42.075C64.6858 39.9069 66.0772 37.8907 67.4807 36.0627C68.6553 34.5331 70.0013 33.1254 71.1694 31.5939C72.6397 29.6661 73.3751 27.6225 74.098 25.3858C75.3473 21.5203 72.446 17.5795 74.6964 14.0868C75.486 12.8614 77 8.4201 80.8897 8.40115C81.6152 6.65777 81.4154 11.0211 81.2386 11.7487C80.6998 13.9671 79.3877 16.0039 78.5219 18.1181C77.0376 21.7427 75.7107 25.4568 74.7086 29.2212C73.4705 33.8722 72.8643 38.889 72.8643 43.6875C72.8643 44.5293 74.8992 43.4232 74.964 43.1807C75.5895 40.8391 74.0605 38.4984 75.1542 36.3277C78.2886 30.1063 83.0507 24.1834 86.8963 18.3254C88.1546 16.4087 89.2257 14.4514 90.3607 12.4744C90.9739 11.4063 91.4762 10.2775 92.1428 9.23786C92.3222 8.95795 92.5225 8.091 92.716 8.62742C93.2073 9.98964 92.8352 11.9494 92.8282 13.3497C92.8098 16.9914 92.3399 20.4657 91.5944 24.0382C90.3449 30.0264 88.5714 35.8593 86.8215 41.7295C86.6425 42.33 86.5425 43.0783 86.2109 43.6299C85.9016 44.1445 86.3199 42.4386 86.3605 42.3284C87.26 39.8862 88.5232 37.5352 89.5631 35.1413C91.6986 30.2254 93.9697 25.4182 96.4172 20.6289C98.9557 15.6614 101.036 12.019 104.443 7.47155C104.486 7.41309 104.859 6.74997 104.929 7.10298C105.178 8.37259 104.711 8.20517 104.468 9.44518C103.068 16.5601 105.885 23.0811 105.885 30.3614C105.885 32.3398 100.168 34.1134 100.555 36.0512C100.846 37.5127 100.805 39.1852 100.405 40.6238C100.202 41.3531 100.006 42.1512 100.006 42.9043C100.006 43.8762 99.9134 46.4199 98.8846 46.1482" stroke="#A736FF" stroke-width="13" stroke-linecap="round"/>
<rect x="3" y="2" width="107" height="48" rx="8" stroke="#171717" stroke-width="3"/>
<path d="M4.26367 7.92137C5.0423 6.93749 5.88999 6.12907 6.63953 5.06356C7.32061 4.09536 8.77765 4.2674 9.65165 3.89926C10.988 3.33641 12.3778 3.41815 13.7671 3.41815C15.8912 3.41815 17.8616 2.03255 19.9538 2.03255C21.0925 2.03255 22.268 1.90086 23.3924 2.16726C24.3973 2.40536 25.3606 3.04389 26.3706 3.23533C28.1105 3.56511 29.9302 3.41815 31.7045 3.41815C33.787 3.41815 35.8695 3.41815 37.9521 3.41815C38.8027 3.41815 39.6533 3.41815 40.5039 3.41815" stroke="#171717" stroke-width="2" stroke-linecap="round"/>
<path d="M42.1553 3.40039C48.8835 3.40039 55.6117 3.40039 62.3399 3.40039C64.4275 3.40039 66.2984 3.62969 68.3506 4.09319C70.1945 4.50965 72.1441 4.26639 74.0093 4.26639C74.8898 4.26639 75.7525 4.43959 76.6424 4.43959C78.5873 4.43959 80.5322 4.43959 82.4771 4.43959C84.3535 4.43959 86.3948 4.65736 88.2103 3.91999" stroke="#171717" stroke-width="2" stroke-linecap="round"/>
<path d="M87.1133 3.91929C91.9509 3.91929 96.7796 3.74609 101.612 3.74609C103.525 3.74609 105.211 4.22376 107.081 4.68907" stroke="#171717" stroke-width="2" stroke-linecap="round"/>
<path d="M108.5 47.1217C103.612 47.1217 103.014 46.7144 98.156 47.39C96.264 47.6532 94.3818 48.1272 92.4894 48.4335C91.2582 48.6328 89.9425 48.381 88.725 48.6273C87.3753 48.9004 85.7825 48.8658 84.4113 48.8658C84.0309 48.8658 82.1764 48.6073 82 49" stroke="#171717" stroke-width="2" stroke-linecap="round"/>
<path d="M89 49C87.8694 49 86.7389 49 85.6083 49C84.5891 49 83.682 48.6335 82.6742 48.4691C79.9991 48.0329 77.2991 48 74.5854 48C71.6223 48 68.7054 48.3333 65.7427 48.3333C64.5605 48.3333 63.3776 48.5316 62.203 48.5556C61.202 48.576 57.9987 48 59 48" stroke="#171717" stroke-width="2" stroke-linecap="round"/>
<path d="M60 48C59.126 48 58.2521 48 57.3781 48C55.9169 48 54.4915 47.75 53.0398 47.75C50.2081 47.75 47.378 47.8049 44.5592 47.5C42.8026 47.31 41.0258 47 39.2614 47C37.3224 47 35.4407 47.312 33.5108 47.375C30.7127 47.4663 27.9618 48.4841 25.1585 48.6181C22.2983 48.7548 13.7132 49 16.5766 49" stroke="#171717" stroke-width="2" stroke-linecap="round"/>
<path d="M20.9553 50.0089C18.0925 50.0089 15.1959 49.8402 12.3995 49.0081C11.3748 48.7033 10.21 48.4501 9.16404 48.4501C8.38443 48.4501 7.84329 47.94 7.18755 47.4493C6.09043 46.6285 4.69108 45.3321 4.62894 43.3887C4.53255 40.3745 3.53239 37.6755 3.53239 34.6325C3.53239 33.2429 3.28871 31.7791 3.28871 30.3025C3.28871 29.1509 3.16687 28.0064 3.16687 26.8385C3.16687 24.5801 3.13439 22.2045 3.04503 20.0452C2.94371 17.5965 3.04503 15.1262 3.04503 12.636C3.04503 11.657 3.10294 10.7236 3.38347 9.82632C3.46872 9.55365 3.19046 9.05177 3.5 9" stroke="#171717" stroke-width="2" stroke-linecap="round"/>
</svg>
