<svg width="116" height="56" viewBox="0 0 116 56" fill="none" xmlns="http://www.w3.org/2000/svg">
<path d="M7.25906 38.9958C7.25906 34.9934 6.41832 34.652 7.61533 31.1476C8.24922 29.2919 8.19153 24.5762 8.93083 22.8026C9.60425 21.1871 8.50149 16.7964 9.22122 15.2343C10.9046 11.5807 14.156 12.8729 15.6192 9.01745C16.503 6.68879 14.5507 14.1105 14.0217 16.6594C12.5275 23.8599 11.43 28.1838 10.1845 35.4762C9.75588 37.9857 9.36434 40.5445 9.16341 43.1181C9.09388 44.0086 9.13047 44.9232 9.13047 45.818C9.13047 47.1916 9.11379 46.8897 9.1387 45.577C9.20989 41.8255 9.87616 38.2782 10.6127 34.7047C11.3392 31.1795 12.0713 30.7198 13.4289 27.5919C15.3658 23.129 18.0205 19.8178 20.3952 15.912C21.2337 14.5329 21.8929 13.0237 22.3797 11.3197C22.6493 10.376 22.7117 9.13263 23.1208 8.29424C23.4054 7.71106 22.9846 9.71489 22.882 10.4157C22.373 13.893 21.579 17.2722 21.021 20.7334C20.0956 26.4747 19.2206 32.2467 18.4684 38.0422C18.3092 39.2685 18.0237 40.6349 18.0237 41.8873C18.0237 42.4566 17.6681 44.0345 17.9084 43.5868C18.078 43.2709 18.2009 42.68 18.2954 42.3453C19.0098 39.8154 19.6618 37.2489 20.3705 34.7155C22.1887 28.2159 24.1193 21.6177 26.4311 15.454C27.2148 13.3644 28.1191 11.2632 29.3625 9.68039C29.817 9.10192 30.1027 8.44758 30.4742 7.76389C30.5528 7.61921 31.1115 6.55862 31.0341 7.20943C30.3565 12.9133 29.0373 18.5854 27.9874 24.1566C27.1356 28.6762 26.6788 33.3979 25.8876 37.9579C25.5726 39.7735 25.1383 41.9358 25.1383 43.8279C25.1383 44.9476 24.6901 46.244 24.5783 47.3716C24.445 48.7156 24.1451 49.2443 24.9489 46.36C26.9769 39.0823 29.3746 34.01 33.4057 28.6405C35.1041 26.3781 36.6478 24.3694 37.5558 21.1674C38.2167 18.8368 38.3168 16.1993 38.8404 13.7906C39.1982 12.1446 39.071 10.3317 39.071 8.63174C39.071 7.14455 39.2192 6.56351 39.2192 8.51121C39.2192 10.1352 39.2758 11.7852 39.1863 13.4049C39.0634 15.6279 38.5113 17.803 38.1817 19.9741C37.3934 25.1663 36.3403 30.2626 35.5137 35.4387C35.0656 38.2445 34.8772 41.1541 34.402 43.9364C34.2559 44.7922 34.0684 45.9044 34.0315 46.769C34.0303 46.7963 34.0357 45.0228 34.0562 44.6475C34.2119 41.7985 35.0151 38.84 35.9748 36.3789C37.5067 32.4504 39.6554 29.0949 41.5166 25.5066C43.1771 22.3053 44.4276 18.7551 44.9174 14.779C45.0892 13.3849 45.2829 11.9563 45.2962 10.5362C45.3037 9.735 45.2552 8.97026 45.4115 8.19781C45.501 7.75567 45.4445 7.76527 45.4445 8.29424C45.4445 9.49734 49.6534 11.6186 49.6605 12.8228C49.6887 17.6054 45.6903 21.4902 45.5186 26.266C45.319 31.8175 44.9998 37.3152 44.9998 42.8757C44.9998 43.522 44.947 45.9301 44.6292 46.3953C44.1604 47.0815 41.3284 42.9264 41.5166 41.9958C41.9754 39.7268 46.2957 39.1355 47.2231 37.2226C47.9992 35.6218 48.8886 34.1486 49.6605 32.5458C50.632 30.5284 51.1179 28.3898 51.5956 26.049C52.4211 22.0037 53.1471 17.8796 54.6341 14.2246C55.1558 12.9421 55.7192 11.7535 56.0834 10.3674C56.5628 8.54297 56.4307 11.0162 56.3139 11.7777C55.9579 14.0993 55.0909 16.2308 54.5188 18.4433C53.538 22.2365 52.6612 26.1234 51.9991 30.0628C51.181 34.9302 50.7804 40.1804 50.7804 45.202C50.7804 46.0829 50.8035 44.9253 50.8463 44.6716C51.2596 42.2211 52.2316 39.7715 52.9543 37.4998C55.0254 30.9891 57.5113 24.7907 60.0524 18.6602C60.8838 16.6544 61.5916 14.6061 62.3416 12.5371C62.7467 11.4194 63.0787 10.238 63.5191 9.15004C63.6377 8.85711 63.7701 7.94984 63.8979 8.51121C64.2225 9.93679 63.9767 11.9877 63.972 13.4531C63.9599 17.2643 63.6494 20.9001 63.1568 24.6388C62.3311 30.9055 61.1592 37.0097 60.003 43.1529C59.8847 43.7814 59.8186 44.5644 59.5995 45.1417C59.3951 45.6803 59.6715 43.895 59.6983 43.7797C60.2927 41.2239 61.1274 38.7636 61.8146 36.2583C63.2256 31.1137 64.7263 26.0829 66.3435 21.0709C68.0209 15.8724 69.3957 13.9675 71.6465 9.20855C71.6754 9.14738 71.9218 12.4534 71.9677 12.8228C72.1327 14.1515 71.8242 12.0693 71.663 13.367C70.7381 20.8129 67.9739 23.6371 67.9739 31.2561C67.9739 33.3265 68.8222 35.1826 69.0774 37.2105C69.2698 38.74 72.2321 40.4903 71.9677 41.9958C71.8336 42.759 68.715 43.5942 68.715 44.3824C68.715 45.3994 68.6537 45.9684 67.9739 45.6841" stroke="#DBDBDB" stroke-width="13" stroke-linecap="round"/>
<path d="M70.0382 46.5101C70.0382 45.256 70.0128 43.9951 70.0713 42.7431C70.2266 39.4155 71.3305 36.443 72.4192 33.5324C73.7024 30.1015 75.0732 26.7251 76.4371 23.3569C77.4479 20.8605 76.6739 15.374 77.6316 12.8369C78.2924 11.0865 80.2465 12.3847 81.1246 10.7582C81.1859 10.6446 81.4605 10.108 81.4884 10.3792C81.693 12.369 81.5236 14.6431 81.4801 16.6383C81.2595 26.75 84.1281 36.4164 83.5786 46.5101C83.5618 46.8179 78.855 49.8153 78.9999 48.1869C79.4076 43.605 77.7988 39.0031 78.9999 34.7613C80.6387 28.9738 85.6228 22.9728 87.8789 17.5801C88.6348 15.7735 89.7353 11.1666 91.252 10.4005C91.4204 10.3154 92.1656 9.96605 92.3267 10.2397C92.7231 10.9127 92.0759 14.0715 91.996 14.7647C98.7763 12.8369 90.1229 30.2315 89.6068 34.7613C89.2619 37.7884 89.1083 40.817 88.8214 43.8457C88.8111 43.9543 89.4132 40.9659 89.6481 40.4003C91.5157 35.9033 93.3907 52.4095 95.4022 48.032C97.6567 43.1257 100.067 17.3897 102.677 12.8369C102.928 12.4003 104.35 9.43675 104.943 9.73603C105.768 10.1532 105.769 12.8116 105.819 13.7097C106.047 17.7868 105.675 21.8487 105 25.8147C104.393 29.3901 103.639 32.9282 102.859 36.438C102.444 38.3065 101.965 40.1779 101.768 42.123C101.731 42.4925 101.562 43.7346 101.983 43.0188C104.543 38.6634 106.675 33.7693 109.018 29.1912" stroke="#DBDBDB" stroke-width="13" stroke-linecap="round"/>
<rect x="4" y="3" width="107" height="50" rx="8" stroke="#171717" stroke-width="2" stroke-linecap="round" stroke-linejoin="round" stroke-dasharray="2 6"/>
</svg>
